<ttFont>
<head>
    <!-- Most of this table will be recalculated by the compiler -->
    <tableVersion value="1.0"/>
    <fontRevision value="0.0"/>
    <checkSumAdjustment value="0xbd75114d"/>
    <magicNumber value="0x5f0f3cf5"/>
    <flags value="00000000 00000011"/>
    <unitsPerEm value="2048"/>
    <created value="Thu May  4 15:29:10 2017"/>
    <modified value="Thu May  4 22:29:14 2017"/>
    <xMin value="-168"/>
    <yMin value="-840"/>
    <xMax value="1434"/>
    <yMax value="2309"/>
<macStyle value="00000000 00000000"/>
    <lowestRecPPEM value="3"/>
    <fontDirectionHint value="2"/>
    <indexToLocFormat value="0"/>
    <glyphDataFormat value="0"/>
  </head>
          <CharString index="0">
            633 -21 rmoveto
            294 187 188 295 hvcurveto
            120 callgsubr
            -71 callsubr
            vhcurveto
            961 vmoveto
            174 109 -125 -202 hvcurveto
            -137 vlineto
            195 callgsubr
            -174 -109 125 202 222 callsubr
            202 109 125 174 vhcurveto
            return
          </CharString>
          <CharString index="1">
            645 947 rmoveto
            165 98 -117 -194 hvcurveto
            -534 hlineto
            195 102 116 169 vhcurveto
            265 -659 rmoveto
            -89 -27 -97 -55 -129 hhcurveto
            -172 -111 118 184 hvcurveto
            49 731 118 vlineto
            310 -173 188 -285 -283 -187 -189 -287 vhcurveto
            -166 vlineto
            -310 175 -180 306 235 79 callsubr
            183 29 vhcurveto
            return
          </CharString>
          <CharString index="2">
            rmoveto
            -200 -639 hlineto
            -176 -112 -117 -167 -161 -75 88 186 vhcurveto
            658 -201 -707 vlineto
            -262 128 -142 237 163 123 76 134 57 vhcurveto
            14 -189 194 hlineto
            return
          </CharString>
          <CharString index="3">
            -93 callgsubr
            420 83 callgsubr
            return
          </CharString>
          <CharString index="4">
            633 161 rmoveto
            -196 -113 130 225 hvcurveto
            927 -208 -940 vlineto
            -334 193 -199 324 324 193 199 334 vhcurveto
            940 -208 -927 vlineto
            -225 -113 -130 -196 vhcurveto
            return
          </CharString>
          <CharString index="5">
            330 477 rmoveto
            151 vlineto
            186 108 120 169 168 109 143 callsubr
            -151 vlineto
            -186 -109 -120 -168 -169 -108 120 186 vhcurveto
            272 -886 rmoveto
            302 181 154 256 hvcurveto
            1089 -198 -173 -19 vlineto
            119 -44 -120 72 -158 hhcurveto
            -257 -163 177 callgsubr
            -186 vlineto
            -284 162 -180 251 160 123 73 117 43 vhcurveto
            19 -182 hlineto
            -164 -99 -90 -180 -138 -103 55 85 -21 199 callgsubr
            -184 21 174 -113 262 hhcurveto
            return
          </CharString>
          <CharString index="6">
            67 59 59 -98 callsubr
            -59 68 hvcurveto
            return
          </CharString>
          <CharString index="7">
            rmoveto
            -179 -113 -110 -183 -218 -113 146 281 vhcurveto
            25 callgsubr
            171 120 -119 -179 8 vhcurveto
            210 hlineto
            303 -7 -192 186 -306 hhcurveto
            -344 -199 37 callsubr
            199 -227 344 300 205 189 279 vhcurveto
            305 -524 -168 313 vlineto
            return
          </CharString>
          <CharString index="8">
            rmoveto
            -89 -27 -97 -55 -129 hhcurveto
            -172 -111 118 184 hvcurveto
            49 731 118 vlineto
            310 -173 188 -285 -283 -187 -189 -287 vhcurveto
            -166 vlineto
            -310 175 -180 306 235 79 callsubr
            183 29 vhcurveto
            -728 348 rmoveto
            195 102 116 169 165 98 -117 -194 vhcurveto
            endchar
          </CharString>
          <CharString index="9">
            70 -83 callgsubr
            -70 58 return
          </CharString>
          <CharString index="10">
            -88 callsubr
            -74 78 115 -1 hvcurveto
            return
          </CharString>
          <CharString index="11">
            170 callgsubr
            -174 -109 125 202 222 callsubr
            202 109 125 174 174 109 -125 -202 vhcurveto
            198 14 rmoveto
            296 -187 187 -294 -294 -187 -187 -296 vhcurveto
            -7 callsubr
            endchar
          </CharString>
          <CharString index="12">
            175 108 -126 -201 hvcurveto
            -137 vlineto
            -201 -108 -126 -175 -175 -108 126 201 222 callsubr
            201 108 126 175 vhcurveto
            481 -478 rmoveto
            158 vlineto
            144 -49 115 -86 57 vhcurveto
            10 57 vlineto
            105 62 63 108 hvcurveto
            195 -168 -139 vlineto
            -68 -30 -24 -82 vhcurveto
            -115 -47 29 -128 hhcurveto
            -294 -187 -187 -296 hvcurveto
            -7 callsubr
            endchar
          </CharString>
          <CharString index="13">
            rmoveto
            195 -883 137 callsubr
            241 1443 144 callsubr
            -78 -556 -78 -593 rlineto
            -13 hlineto
            -181 819 rlineto
            -178 hlineto
            -181 -819 rlineto
            -13 hlineto
            -78 593 -78 556 144 callsubr
            241 -1443 137 callsubr
            195 883 rlineto
            return
          </CharString>
          <CharString index="14">
            rmoveto
            187 106 119 168 168 106 -118 -188 vhcurveto
            123 callsubr
            -106 -118 -168 -168 -106 118 187 vhcurveto
            548 -293 rmoveto
            -172 201 1515 -206 -598 -19 vlineto
            122 -44 -115 69 -157 hhcurveto
            -251 -160 177 callgsubr
            -198 vlineto
            -285 160 -179 251 157 112 67 123 52 vhcurveto
            endchar
          </CharString>
          <CharString index="15">
            -94 callgsubr
            -391 201 -227 344 304 203 193 292 vhcurveto
            -210 hlineto
            -182 -4 -114 -112 -180 hhcurveto
            return
          </CharString>
          <CharString index="16">
            1227 1090 -86 callgsubr
            return
          </CharString>
          <CharString index="17">
            181 -294 1081 294 181 -796 -181 294 -1081 -294 -181 vlineto
            return
          </CharString>
          <CharString index="18">
            rmoveto
            114 28 95 79 152 hhcurveto
            176 114 -110 -192 16 hvcurveto
            -475 -149 477 hlineto
            -211 -11 -113 -123 -184 hhcurveto
            -151 -96 70 118 -27 hvcurveto
            -193 hlineto
            -221 30 166 -141 275 hhcurveto
            317 188 210 360 354 -188 209 -317 -273 -169 -151 -216 -29 hvcurveto
            endchar
          </CharString>
          <CharString index="19">
            -80 callsubr
            17 callsubr
            return
          </CharString>
          <CharString index="20">
            -191 138 -129 204 204 138 129 191 vhcurveto
            return
          </CharString>
          <CharString index="21">
            201 637 hlineto
            -78 callgsubr
            -15 616 -194 hlineto
            return
          </CharString>
          <CharString index="22">
            rmoveto
            47 callgsubr
            -589 vlineto
            -234 122 -100 279 42 158 4 4 22 vhcurveto
            164 vlineto
            -3 -24 -133 -2 -51 hhcurveto
            -139 -75 59 108 hvcurveto
            589 428 101 callsubr
            vlineto
            return
          </CharString>
          <CharString index="23">
            rmoveto
            652 -34 hlineto
            24 callsubr
            652 211 rmoveto
            -652 16 hlineto
            290 120 158 206 206 120 -158 -290 vhcurveto
            -862 -228 rmoveto
            24 callgsubr
            12 callsubr
            endchar
          </CharString>
          <CharString index="24">
            rmoveto
            -149 vlineto
            -57 -29 -29 -63 vhcurveto
            -169 -640 hlineto
            -177 -107 -115 -163 -155 -76 90 184 vhcurveto
            658 -199 -707 vlineto
            -266 122 -138 235 161 117 73 137 57 vhcurveto
            15 -189 193 944 25 hlineto
            125 80 68 123 hvcurveto
            190 vlineto
            endchar
          </CharString>
          <CharString index="25">
            -81 callsubr
            endchar
          </CharString>
          <CharString index="26">
            rmoveto
            335 201 239 398 hvcurveto
            229 vlineto
            209 -55 155 -98 77 vhcurveto
            12 69 vlineto
            134 74 68 122 hvcurveto
            197 -168 -145 vlineto
            -73 -35 -27 -95 vhcurveto
            -152 -69 42 -141 hhcurveto
            -335 -201 -239 -398 hvcurveto
            -229 vlineto
            -398 201 -239 335 vhcurveto
            190 vmoveto
            -208 -118 160 288 222 callgsubr
            288 118 160 208 208 118 -160 -288 214 callsubr
            -288 -118 -160 -208 vhcurveto
            return
          </CharString>
          <CharString index="27">
            -81 callgsubr
            -115 return
          </CharString>
          <CharString index="28">
            rmoveto
            -148 -83 140 255 255 83 139 148 148 83 -139 -255 -255 -83 -140 -148 hvcurveto
            -579 491 rmoveto
            449 -176 -1090 176 476 171 vlineto
            -311 18 147 -186 245 hhcurveto
            265 148 201 365 364 -148 202 -265 -236 -147 -177 -293 -24 hvcurveto
            endchar
          </CharString>
          <CharString index="29">
            rmoveto
            -219 hlineto
            -339 -884 rlineto
            -17 hlineto
            -352 884 rlineto
            -223 hlineto
            473 -1105 rlineto
            -117 -62 -68 -45 -92 hhcurveto
            -37 -24 4 5 -17 hvcurveto
            -183 vlineto
            -6 10 43 -8 43 hhcurveto
            212 111 121 295 124 hvcurveto
            return
          </CharString>
          <CharString index="30">
            162 -352 928 -555 -162 359 -766 -367 -162 vlineto
            return
          </CharString>
          <CharString index="31">
            rmoveto
            73 62 63 75 75 -62 63 -73 -74 -62 -63 -75 -75 62 -63 74 hvcurveto
            return
          </CharString>
          <CharString index="32">
            rmoveto
            193 -77 103 -147 -108 -84 -67 -108 -26 vhcurveto
            -22 hlineto
            111 -23 -71 64 -102 hhcurveto
            -104 -77 -66 -113 -26 hvcurveto
            -22 158 -177 -1090 176 739 hlineto
            120 55 74 88 83 45 -62 -117 vhcurveto
            -754 175 739 vlineto
            120 54 74 86 82 46 -63 -117 vhcurveto
            -753 176 vlineto
            return
          </CharString>
          <CharString index="33">
            294 187 188 295 return
          </CharString>
          <CharString index="34">
            277 532 rmoveto
            -17 583 rlineto
            15 hlineto
            281 -776 rlineto
            154 hlineto
            281 776 rlineto
            15 hlineto
            -17 -583 rlineto
            -532 181 -45 callgsubr
            -224 vlineto
            -306 -875 rlineto
            -14 hlineto
            -307 875 rlineto
            -223 -1443 181 hlineto
            return
          </CharString>
          <CharString index="35">
            -79 callgsubr
            endchar
          </CharString>
          <CharString index="36">
            -295 187 -188 294 return
          </CharString>
          <CharString index="37">
            145 callgsubr
            -200 hlineto
            -172 -197 rlineto
            -14 hlineto
            -172 181 callgsubr
            return
          </CharString>
          <CharString index="38">
            477 vlineto
            143 174 458 -651 rlineto
            252 hlineto
            -568 805 522 638 184 callsubr
            -561 -701 rlineto
            -13 701 -202 -1443 hlineto
            return
          </CharString>
          <CharString index="39">
            -39 callgsubr
            185 hvcurveto
            -153 hlineto
            -103 159 callgsubr
            -185 67 callgsubr
            return
          </CharString>
          <CharString index="40">
            rmoveto
            -552 205 -45 callgsubr
            -493 vlineto
            -290 -190 -177 -271 -204 124 -159 200 -51 hvcurveto
            -387 -581 rlineto
            234 hlineto
            364 552 rlineto
            -21 171 rmoveto
            -189 -112 101 171 170 112 101 189 hvcurveto
            254 -543 hlineto
            endchar
          </CharString>
          <CharString index="41">
            rmoveto
            99 hlineto
            181 109 -106 -175 -174 -111 -107 -182 hvcurveto
            -96 hlineto
            120 -180 rmoveto
            278 181 180 280 283 -176 177 -277 hvcurveto
            -123 523 -187 -1443 hlineto
            1074 hmoveto
            -45 callgsubr
            -186 184 callgsubr
          </CharString>
          <CharString index="42">
            15 callgsubr
            163 -222 rlineto
            214 hlineto
            -272 346 rlineto
            return
          </CharString>
          <CharString index="43">
            1090 -428 vlineto
            -247 -159 -139 -222 -156 99 -118 159 -37 hvcurveto
            -302 -418 rlineto
            232 hlineto
            273 384 rlineto
            176 -384 hlineto
            926 vmoveto
            -387 -217 vlineto
            -134 -87 76 114 122 86 75 135 hvcurveto
            endchar
          </CharString>
          <CharString index="44">
            -59 59 -67 -68 -58 -59 return
          </CharString>
          <CharString index="45">
            rmoveto
            -208 -940 hlineto
            -334 193 -199 324 324 193 199 334 vhcurveto
            940 -208 -927 vlineto
            -225 -113 -130 -196 -196 -113 130 225 vhcurveto
            endchar
          </CharString>
          <CharString index="46">
            hmoveto
            -82 callgsubr
            return
          </CharString>
          <CharString index="47">
            -97 callsubr
            endchar
          </CharString>
          <CharString index="48">
            59 hmoveto
            96 callgsubr
            345 -553 rlineto
            227 hlineto
            -451 721 457 722 rlineto
            -218 hlineto
            -344 -562 rlineto
            -9 hlineto
            -341 562 184 callsubr
            446 -718 rlineto
            return
          </CharString>
          <CharString index="49">
            365 538 rlineto
            -224 hlineto
            -251 -401 rlineto
            -14 hlineto
            -253 401 221 callgsubr
            368 -546 -366 -544 rlineto
            219 hlineto
            258 405 rlineto
            return
          </CharString>
          <CharString index="50">
            38 callsubr
            -232 hlineto
            return
          </CharString>
          <CharString index="51">
            -45 callgsubr
            -206 -615 -568 615 212 callgsubr
            643 568 -643 vlineto
            return
          </CharString>
          <CharString index="52">
            rmoveto
            13 25 43 9 43 hhcurveto
            64 41 -31 -45 -43 -42 -41 -60 -21 hvcurveto
            73 -92 rlineto
            104 39 67 82 94 vvcurveto
            112 -88 72 -131 -53 144 callgsubr
            return
          </CharString>
          <CharString index="53">
            -94 -4 -35 -46 -57 -90 -35 152 -164 hhcurveto
            -132 -88 -105 -174 hvcurveto
            138 hlineto
            96 3 34 46 58 return
          </CharString>
          <CharString index="54">
            635 143 rmoveto
            -165 -99 116 193 hvcurveto
            535 hlineto
            -194 -102 -115 -169 vhcurveto
            -265 659 rmoveto
            88 26 98 56 129 hhcurveto
            172 111 -118 -185 hvcurveto
            -50 -731 -118 vlineto
            -309 173 -187 284 284 187 189 286 vhcurveto
            167 vlineto
            310 -176 180 -305 -236 -179 -126 -183 -29 vhcurveto
            return
          </CharString>
          <CharString index="55">
            -65 callsubr
            endchar
          </CharString>
          <CharString index="56">
            rmoveto
            188 645 rlineto
            7 hlineto
            187 -645 rlineto
            385 -567 rmoveto
            -455 -57 callsubr
            -455 -1443 rlineto
            210 hlineto
            116 398 rlineto
            480 hlineto
            return
          </CharString>
          <CharString index="57">
            68 58 60 -23 callsubr
            -60 67 hvcurveto
            return
          </CharString>
          <CharString index="58">
            rmoveto
            173 659 rlineto
            90 -659 hlineto
            605 670 rmoveto
            184 -827 vlineto
            -407 -1443 79 callgsubr
            109 413 rlineto
            309 -413 605 185 -415 454 379 176 -379 444 hlineto
            endchar
          </CharString>
          <CharString index="59">
            -42 callsubr
            213 hlineto
            164 return
          </CharString>
          <CharString index="60">
            726 -34 callgsubr
            620 -206 rmoveto
            -213 hlineto
            -285 -892 rlineto
            -14 hlineto
            -287 892 rlineto
            -220 hlineto
            397 -1098 -17 -54 rlineto
            -115 -40 -57 -44 -105 hhcurveto
            -16 -33 1 2 -11 hvcurveto
            -169 vlineto
            -1 13 38 -2 31 hhcurveto
            222 102 86 271 95 hvcurveto
            endchar
          </CharString>
          <CharString index="61">
            864 166 -608 15 hlineto
            602 767 rlineto
            142 -854 -166 614 -15 vlineto
            -618 -777 rlineto
            return
          </CharString>
          <CharString index="62">
            hvcurveto
            -168 -33 callgsubr
            return
          </CharString>
          <CharString index="63">
            86 callsubr
            131 callgsubr
            421 -76 callgsubr
            endchar
          </CharString>
          <CharString index="64">
            -71 -53 -104 -46 -113 hhcurveto
            -153 -81 80 156 hvcurveto
            303 -201 -329 vlineto
            -243 147 -146 243 122 104 37 65 74 vhcurveto
            15 -474 return
          </CharString>
          <CharString index="65">
            rmoveto
            -272 -346 rlineto
            return
          </CharString>
          <CharString index="66">
            9 callsubr
            endchar
          </CharString>
          <CharString index="67">
            367 899 rmoveto
            369 254 121 -254 126 -194 -126 -152 -121 152 -1268 201 637 vlineto
            -78 callgsubr
            endchar
          </CharString>
          <CharString index="68">
            -24 -73 -38 -57 7 7 -22 hvcurveto
            -117 vlineto
            -12 44 return
          </CharString>
          <CharString index="69">
            rmoveto
            -73 -63 -63 -75 -75 63 -63 73 73 63 63 75 75 -63 63 -73 hvcurveto
            -196 749 -51 callsubr
            115 -398 rlineto
            endchar
          </CharString>
          <CharString index="70">
            651 1345 rmoveto
            90 65 62 86 87 -65 62 -90 -89 -66 -62 -87 -86 66 -62 89 hvcurveto
            460 -1345 rmoveto
            -77 callsubr
            return
          </CharString>
          <CharString index="71">
            rmoveto
            43 39 6 11 32 hvcurveto
            130 vlineto
            -4 -17 -28 -3 -24 hhcurveto
            -74 -49 42 64 71 43 61 112 86 hvcurveto
            143 111 70 144 181 vvcurveto
            120 callgsubr
            -293 185 -190 284 35 33 5 8 24 vhcurveto
            -14 vlineto
            -85 -51 -50 -78 -82 vvcurveto
            -120 102 -85 144 vhcurveto
            -191 1378 59 callgsubr
            endchar
          </CharString>
          <CharString index="72">
            737 hmoveto
            1258 429 185 -1066 -185 429 -1258 return
          </CharString>
          <CharString index="73">
            -206 hlineto
            -280 -243 79 callgsubr
            return
          </CharString>
          <CharString index="74">
            rmoveto
            -290 -120 -158 -206 -99 -79 36 70 -55 vhcurveto
            527 795 rlineto
            21 -62 11 -76 -88 vvcurveto
            -652 hmoveto
            290 120 158 206 98 79 -36 -69 55 vhcurveto
            -527 -794 rlineto
            -20 62 -11 75 87 vvcurveto
            873 835 rmoveto
            -139 hlineto
            -61 -92 rlineto
            80 -89 -117 42 -141 hhcurveto
            -333 -203 -237 -400 hvcurveto
            -229 vlineto
            -174 38 -143 71 -106 vhcurveto
            -122 -184 rlineto
            139 hlineto
            61 93 rlineto
            -80 89 118 -43 142 hhcurveto
            -63 callgsubr
            hvcurveto
            229 vlineto
            175 -39 143 -71 107 vhcurveto
            endchar
          </CharString>
          <CharString index="75">
            186 hmoveto
            299 649 rlineto
            59 -649 177 649 59 hlineto
            298 -649 rlineto
            198 hlineto
            -348 737 314 706 rlineto
            -192 hlineto
            -269 -628 rlineto
            -60 628 -177 -628 -61 hlineto
            -269 628 rlineto
            -193 hlineto
            314 -708 -345 -735 rlineto
            return
          </CharString>
          <CharString index="76">
            1434 405 rmoveto
            310 return
          </CharString>
          <CharString index="77">
            170 callgsubr
            -76 -63 24 43 -48 vhcurveto
            438 564 rlineto
            21 -47 11 -56 -64 vvcurveto
            -566 hmoveto
            202 109 125 174 75 63 -23 -43 48 vhcurveto
            -438 -565 rlineto
            -20 47 -11 56 64 vvcurveto
            775 614 rmoveto
            -139 hlineto
            -52 -68 rlineto
            57 -79 -102 31 -120 192 callsubr
            -129 36 -109 65 -81 vhcurveto
            -111 -143 rlineto
            136 hlineto
            53 68 rlineto
            -57 79 103 -32 120 hhcurveto
            199 callsubr
            129 -36 109 -65 81 vhcurveto
            endchar
          </CharString>
          <CharString index="78">
            897 -7 rmoveto
            69 74 9 12 54 hvcurveto
            160 vlineto
            -8 -47 -63 -6 -54 hhcurveto
            -141 -56 47 113 hvcurveto
            770 -553 -165 352 -626 vlineto
            -219 112 -87 253 vhcurveto
            return
          </CharString>
          <CharString index="79">
            -206 rmoveto
            -198 -173 -19 hlineto
            119 -44 -120 72 -158 hhcurveto
            -257 -163 177 callgsubr
            -186 vlineto
            -284 162 -180 251 160 123 73 117 43 vhcurveto
            19 -182 hlineto
            -164 -99 -90 -180 -138 -103 55 85 -21 199 callgsubr
            -184 21 174 -113 262 hhcurveto
            302 181 154 256 hvcurveto
            -755 627 rmoveto
            186 108 120 169 168 109 143 callsubr
            -151 vlineto
            -186 -109 -120 -168 -169 -108 120 186 vhcurveto
            endchar
          </CharString>
          <CharString index="80">
            rmoveto
            14 -799 190 1090 -196 hlineto
            -527 -795 rlineto
            -15 795 -190 -1090 196 hlineto
            endchar
          </CharString>
          <CharString index="81">
            -107 callsubr
            -113 685 -88 callgsubr
            return
          </CharString>
          <CharString index="82">
            rmoveto
            152 -678 -152 vlineto
            return
          </CharString>
          <CharString index="83">
            1296 146 callgsubr
            -420 20 callsubr
            return
          </CharString>
          <CharString index="84">
            70 70 48 callgsubr
            -70 -70 59 return
          </CharString>
          <CharString index="85">
            -64 -73 -102 -35 -139 hhcurveto
            -191 -122 118 205 hvcurveto
            398 -209 -411 vlineto
            -299 185 -203 306 135 114 31 60 82 vhcurveto
            14 return
          </CharString>
          <CharString index="86">
            1129 188 rmoveto
            -669 1255 -206 -1443 875 hlineto
            return
          </CharString>
          <CharString index="87">
            rmoveto
            189 106 123 164 165 100 -123 -189 vhcurveto
            -150 vlineto
            -190 -100 -122 -165 -164 -106 122 190 vhcurveto
            877 -308 rmoveto
            -4 -17 -22 -3 -17 hhcurveto
            -65 -27 36 93 hvcurveto
            804 -191 -164 -19 vlineto
            112 -49 -106 69 -153 hhcurveto
            -247 -160 -183 -286 hvcurveto
            -186 vlineto
            -284 162 -186 246 156 107 68 118 47 vhcurveto
            19 hlineto
            -116 14 79 -62 127 hhcurveto
            45 49 5 9 22 hvcurveto
            endchar
          </CharString>
          <CharString index="88">
            1579 -97 callsubr
            return
          </CharString>
          <CharString index="89">
            898 -21 rmoveto
            204 104 179 350 237 -58 217 -95 128 hvcurveto
            -194 hlineto
            111 -163 52 -189 -252 vvcurveto
            -223 -48 -104 -105 -98 -50 102 164 vhcurveto
            339 -176 -339 vlineto
            -164 -50 -102 -98 -105 -48 104 223 252 52 189 111 163 vhcurveto
            -194 hlineto
            -95 -129 -58 -217 -236 vvcurveto
            -350 104 -179 204 125 83 79 152 50 vhcurveto
            14 hlineto
            -152 50 83 -79 125 hhcurveto
            return
          </CharString>
          <CharString index="90">
            -106 callsubr
            -574 1337 -42 callsubr
            return
          </CharString>
          <CharString index="91">
            -109 -1 -83 -76 -119 hhcurveto
            -119 -83 76 109 -1 hvcurveto
            return
          </CharString>
          <CharString index="92">
            718 1107 rmoveto
            122 callsubr
            hvcurveto
            -19 165 callgsubr
            44 114 -69 158 28 callsubr
            vhcurveto
            -67 -178 rmoveto
            168 107 -118 -187 hvcurveto
            123 callsubr
            -107 -119 -168 -167 -106 118 188 148 callsubr
            106 223 callgsubr
            vhcurveto
            return
          </CharString>
          <CharString index="93">
            vlineto
            -71 callsubr
            -74 callsubr
            vhcurveto
            return
          </CharString>
          <CharString index="94">
            rmoveto
            83 45 213 callgsubr
            90 170 callsubr
            -26 -47 -59 vhcurveto
            -84 -44 33 callgsubr
            -91 -115 169 callsubr
            48 59 hhcurveto
            endchar
          </CharString>
          <CharString index="95">
            214 callgsubr
            154 hhcurveto
            144 91 116 184 107 callsubr
            -102 118 callsubr
            152 -154 -41 callgsubr
          </CharString>
          <CharString index="96">
            833 759 rmoveto
            163 34 108 133 163 vvcurveto
            226 -197 158 -281 -293 -194 -162 -252 -13 vhcurveto
            196 hlineto
            144 10 117 94 170 hhcurveto
            172 111 -91 -141 -144 -115 -95 -173 hvcurveto
            -183 -176 188 hlineto
            210 123 -90 -153 -152 -130 -103 -194 -187 -135 97 143 -9 hvcurveto
            -200 hlineto
            10 return
          </CharString>
          <CharString index="97">
            -47 callgsubr
            endchar
          </CharString>
          <CharString index="98">
            rmoveto
            500 176 -500 32 hlineto
            -3 callsubr
          </CharString>
          <CharString index="99">
            25 callsubr
            1314 -168 return
          </CharString>
          <CharString index="100">
            -165 -14 callsubr
            return
          </CharString>
          <CharString index="101">
            140 -140 226 42 callgsubr
            return
          </CharString>
          <CharString index="102">
            650 -22 rmoveto
            275 166 141 221 30 hvcurveto
            -193 hlineto
            -118 -28 -95 -70 -152 hhcurveto
            -184 -113 123 211 -11 hvcurveto
            477 149 -474 hlineto
            192 16 114 110 175 hhcurveto
            152 95 -79 -114 28 hvcurveto
            193 hlineto
            216 -30 -168 151 -273 hhcurveto
            -318 -188 -209 -354 -360 188 -210 318 hvcurveto
            return
          </CharString>
          <CharString index="103">
            479 883 rmoveto
            248 7 98 152 190 hhcurveto
            180 104 -139 -246 hvcurveto
            -20 -579 vlineto
            -3 -183 rmoveto
            769 hlineto
            0 2 128 43 vvcurveto
            358 -160 249 -314 -305 -153 -227 -369 -25 vhcurveto
            -81 1 -36 43 76 vvcurveto
            70 23 51 0 vhcurveto
            -159 hlineto
            0 -29 -57 -86 vvcurveto
            -163 81 -114 197 -1 vhcurveto
            -45 vlineto
            return
          </CharString>
          <CharString index="104">
            -92 callsubr
            14 callgsubr
            endchar
          </CharString>
          <CharString index="105">
            -557 1 callgsubr
          </CharString>
          <CharString index="106">
            119 callsubr
            -25 -153 rmoveto
            26 hlineto
            184 60 -137 -428 -437 -59 -136 -185 hvcurveto
            -26 hlineto
            453 -152 rmoveto
            571 164 -389 14 hlineto
            381 1118 rlineto
            147 -540 -164 364 -14 vlineto
            -387 -1118 rlineto
            endchar
          </CharString>
          <CharString index="107">
            -68 callgsubr
            421 hmoveto
            -87 callgsubr
            return
          </CharString>
          <CharString index="108">
            648 vlineto
            173 106 111 163 155 74 -87 -180 vhcurveto
            -1031 200 1073 vlineto
            260 -127 144 -226 -165 -122 -79 -140 -56 vhcurveto
            -14 hlineto
            -2 11 rlineto
            137 -16 -69 62 -146 hhcurveto
            -43 -42 -5 -8 -22 hvcurveto
            -160 vlineto
            3 18 20 4 17 hhcurveto
            71 26 -38 -88 hvcurveto
            -810 vlineto
            endchar
          </CharString>
          <CharString index="109">
            582 4 callsubr
            return
          </CharString>
          <CharString index="110">
            481 636 rmoveto
            195 97 116 164 158 95 -117 -194 vhcurveto
            191 -141 rmoveto
            118 vlineto
            310 -167 188 -275 -272 -180 -187 -285 -2 vhcurveto
            -3 hlineto
            -80 -44 47 77 61 18 47 6 15 hvcurveto
            -150 hlineto
            -6 -12 -24 -58 -64 vvcurveto
            -157 91 -99 185 vhcurveto
            7 -27 hlineto
            return
          </CharString>
          <CharString index="111">
            rmoveto
            -73 callgsubr
            return
          </CharString>
          <CharString index="112">
            113 callgsubr
            endchar
          </CharString>
          <CharString index="113">
            130 callgsubr
            -41 -42 -60 -21 hvcurveto
            73 -95 rlineto
            110 94 callgsubr
            return
          </CharString>
          <CharString index="114">
            -116 -5 callgsubr
            return
          </CharString>
          <CharString index="115">
            498 180 rmoveto
            508 200 vlineto
            195 113 -94 -160 -160 -113 -94 -195 hvcurveto
            -200 686 rmoveto
            208 482 172 -482 197 -209 -197 -289 -172 289 -1074 462 vlineto
            280 187 173 260 259 -190 174 -284 hvcurveto
            endchar
          </CharString>
          <CharString index="116">
            123 callgsubr
            -73 -63 -62 -76 -75 63 -62 73 hvcurveto
            return
          </CharString>
          <CharString index="117">
            1434 474 rmoveto
            172 return
          </CharString>
          <CharString index="118">
            482 165 rmoveto
            402 220 vlineto
            164 81 -74 -127 -128 -81 -73 -164 hvcurveto
            -220 565 rmoveto
            219 456 141 -456 425 -201 -425 -253 -141 253 -949 441 vlineto
            276 147 134 231 231 -147 134 -276 hvcurveto
            endchar
          </CharString>
          <CharString index="119">
            229 vlineto
            400 -203 237 -333 -333 -203 -237 -400 vhcurveto
            return
          </CharString>
          <CharString index="120">
            rmoveto
            10 21 38 7 34 hhcurveto
            55 36 -28 -43 -41 -30 -37 -54 -21 hvcurveto
            86 -79 rlineto
            86 34 52 73 86 vvcurveto
            102 -78 68 -119 -50 -52 -8 -12 -25 vhcurveto
            -27 -291 -53 callgsubr
            endchar
          </CharString>
          <CharString index="121">
            rmoveto
            -1266 -1287 rlineto
            -156 vlineto
            1266 1287 rlineto
            endchar
          </CharString>
          <CharString index="122">
            1111 117 callsubr
            -828 vlineto
            -44 -892 rlineto
            -260 -13 -52 -105 -115 hhcurveto
            -19 -23 3 4 -12 hvcurveto
            -192 vlineto
            -7 21 31 -5 27 hhcurveto
            216 107 171 377 19 hvcurveto
            38 721 rlineto
            449 -1258 168 -286 185 477 hlineto
            endchar
          </CharString>
          <CharString index="123">
            359 rlineto
            -205 hlineto
            -117 163 callgsubr
          </CharString>
          <CharString index="124">
            -1 -74 -78 -105 hhcurveto
            -105 return
          </CharString>
          <CharString index="125">
            746 75 callsubr
            271 346 107 callgsubr
            -164 -222 rlineto
            -15 hlineto
            -164 222 107 callgsubr
            272 -346 rlineto
            return
          </CharString>
          <CharString index="126">
            hlineto
            -16 callsubr
            endchar
          </CharString>
          <CharString index="127">
            hmoveto
            67 59 60 -98 callsubr
            -60 68 hvcurveto
            return
          </CharString>
          <CharString index="128">
            -39 callsubr
            38 -6 return
          </CharString>
          <CharString index="129">
            -65 -52 -54 -67 -66 52 -54 65 return
          </CharString>
          <CharString index="130">
            -45 callgsubr
            -198 185 callgsubr
            669 -33 rmoveto
            220 117 149 281 hvcurveto
            1046 -562 -183 367 -848 vlineto
            -177 -47 -76 -99 -92 -54 73 143 -5 vhcurveto
            -191 hlineto
            -261 2 126 -147 218 hhcurveto
            endchar
          </CharString>
          <CharString index="131">
            -290 -120 -158 -206 -206 -120 158 290 vhcurveto
            return
          </CharString>
          <CharString index="132">
            10 callsubr
            -717 return
          </CharString>
          <CharString index="133">
            40 callgsubr
            74 callgsubr
          </CharString>
          <CharString index="134">
            307 46 callsubr
            return
          </CharString>
          <CharString index="135">
            hhcurveto
            251 160 179 284 hvcurveto
            199 vlineto
            284 -160 179 -251 return
          </CharString>
          <CharString index="136">
            rmoveto
            185 hlineto
            242 343 rlineto
            -209 hlineto
            -618 -343 rmoveto
            185 hlineto
            242 343 rlineto
            -209 hlineto
            endchar
          </CharString>
          <CharString index="137">
            1806 rmoveto
            90 callgsubr
            -18 callgsubr
            hvcurveto
            -546 135 106 callgsubr
            138 -268 rmoveto
            22 callsubr
            -18 callgsubr
            hvcurveto
            return
          </CharString>
          <CharString index="138">
            221 callsubr
            87 354 221 callgsubr
            -233 34 callgsubr
            652 hmoveto
            66 56 57 68 68 -56 57 -66 -65 -57 -57 -68 -68 57 -57 65 hvcurveto
            endchar
          </CharString>
          <CharString index="139">
            95 callsubr
            105 106 -105 hlineto
            -211 -106 rmoveto
            105 106 -105 hlineto
            return
          </CharString>
          <CharString index="140">
            465 hmoveto
            200 919 466 165 -469 109 hlineto
            101 72 53 137 50 170 -4 -4 40 vhcurveto
            155 vlineto
            5 -30 -182 4 -52 hhcurveto
            -276 -126 -97 -220 hvcurveto
            -102 -292 -165 292 vlineto
            return
          </CharString>
          <CharString index="141">
            -106 hlineto
            1160 105 186 callgsubr
            -212 -106 rmoveto
            106 106 -106 hlineto
            -211 -106 rmoveto
            106 106 -106 hlineto
            -210 180 callgsubr
            949 return
          </CharString>
          <CharString index="142">
            -96 callgsubr
            endchar
          </CharString>
          <CharString index="143">
            vmoveto
            43 callsubr
          </CharString>
          <CharString index="144">
            -227 -391 hvcurveto
            -267 vlineto
            -391 return
          </CharString>
          <CharString index="145">
            -45 callgsubr
            rlineto
            return
          </CharString>
          <CharString index="146">
            78 callsubr
            65 80 98 vvcurveto
            return
          </CharString>
          <CharString index="147">
            hlineto
            302 -307 137 callsubr
            return
          </CharString>
          <CharString index="148">
            153 hhcurveto
            145 91 return
          </CharString>
          <CharString index="149">
            1612 -66 callgsubr
            endchar
          </CharString>
          <CharString index="150">
            -99 callgsubr
            endchar
          </CharString>
          <CharString index="151">
            637 vlineto
            -13 callgsubr
            169 161 77 -89 -185 vhcurveto
            return
          </CharString>
          <CharString index="152">
            -8 callgsubr
            -1245 return
          </CharString>
          <CharString index="153">
            rmoveto
            -211 40 callsubr
            return
          </CharString>
          <CharString index="154">
            rmoveto
            151 -677 -151 vlineto
            return
          </CharString>
          <CharString index="155">
            rmoveto
            173 690 -173 hlineto
            -175 -128 rlineto
            -158 vlineto
            172 129 rlineto
            3 hlineto
            1091 157 14 callsubr
          </CharString>
          <CharString index="156">
            111 85 84 110 108 -85 84 -111 -111 -85 -84 -108 -110 86 -84 110 hvcurveto
            return
          </CharString>
          <CharString index="157">
            -159 99 -100 199 -45 return
          </CharString>
          <CharString index="158">
            -45 -892 rlineto
            -260 -13 -53 -105 -117 hhcurveto
            -19 -24 3 4 -12 hvcurveto
            -192 vlineto
            -7 22 31 -5 28 hhcurveto
            222 109 171 377 19 hvcurveto
            39 721 rlineto
            453 -1258 return
          </CharString>
          <CharString index="159">
            -176 135 -115 222 222 135 115 176 vhcurveto
            return
          </CharString>
          <CharString index="160">
            rmoveto
            105 105 -105 hlineto
            -211 -105 rmoveto
            106 105 215 callsubr
            -105 rmoveto
            return
          </CharString>
          <CharString index="161">
            1820 -55 callsubr
            endchar
          </CharString>
          <CharString index="162">
            451 hmoveto
            613 603 179 -603 466 661 185 -870 185 callgsubr
            return
          </CharString>
          <CharString index="163">
            1366 -25 callsubr
            return
          </CharString>
          <CharString index="164">
            -21 hvcurveto
            74 -95 rlineto
            109 42 return
          </CharString>
          <CharString index="165">
            hlineto
            -13 callgsubr
            return
          </CharString>
          <CharString index="166">
            -44 39 callsubr
            return
          </CharString>
          <CharString index="167">
            1245 vlineto
            endchar
          </CharString>
          <CharString index="168">
            -169 hlineto
            177 callsubr
            rmoveto
            1314 -169 -1141 -548 -173 vlineto
            return
          </CharString>
          <CharString index="169">
            291 68 callsubr
            return
          </CharString>
          <CharString index="170">
            rmoveto
            -192 -1090 192 480 67 hlineto
            454 -480 rlineto
            249 hlineto
            -538 578 513 512 rlineto
            -236 hlineto
            -444 -454 rlineto
            -65 hlineto
            endchar
          </CharString>
          <CharString index="171">
            -68 callgsubr
            421 -76 callgsubr
            endchar
          </CharString>
          <CharString index="172">
            125 callsubr
            -232 hlineto
            319 67 callsubr
            return
          </CharString>
          <CharString index="173">
            -90 -65 -62 -87 -86 65 -62 90 hvcurveto
            return
          </CharString>
          <CharString index="174">
            -307 150 callgsubr
            return
          </CharString>
          <CharString index="175">
            1930 -97 callsubr
            return
          </CharString>
          <CharString index="176">
            1314 vlineto
            endchar
          </CharString>
          <CharString index="177">
            157 -117 121 -152 -71 -61 -27 -54 -47 vhcurveto
            -15 hlineto
            37 122 119 92 150 22 rrcurveto
            103 vlineto
            -121 -12 -118 -56 -79 -83 rrcurveto
            return
          </CharString>
          <CharString index="178">
            -458 rmoveto
            -99 callgsubr
            return
          </CharString>
          <CharString index="179">
            1314 -717 -173 548 204 callsubr
          </CharString>
          <CharString index="180">
            rmoveto
            74 62 62 76 75 -62 62 -74 -73 -62 -62 -75 -76 62 -62 73 hvcurveto
            endchar
          </CharString>
          <CharString index="181">
            rmoveto
            173 -717 -1314 169 1141 vlineto
            return
          </CharString>
          <CharString index="182">
            1296 rmoveto
            return
          </CharString>
          <CharString index="183">
            rmoveto
            -137 146 -110 203 203 146 110 137 vhcurveto
            -149 hlineto
            -65 -1 -86 -56 -113 hhcurveto
            -113 -86 56 65 -1 hvcurveto
            return
          </CharString>
          <CharString index="184">
            619 75 callsubr
            185 hlineto
            243 343 rlineto
            -210 hlineto
            -618 -343 rmoveto
            185 hlineto
            243 343 rlineto
            -210 hlineto
            endchar
          </CharString>
          <CharString index="185">
            -42 -42 -60 57 callsubr
            return
          </CharString>
          <CharString index="186">
            180 126 return
          </CharString>
          <CharString index="187">
            190 -138 129 -204 -204 -138 -129 -190 vhcurveto
            162 hlineto
            114 1 74 78 105 hhcurveto
            105 74 -78 -114 1 hvcurveto
            return
          </CharString>
          <CharString index="188">
            -1296 rmoveto
            98 callsubr
          </CharString>
          <CharString index="189">
            -72 callgsubr
            endchar
          </CharString>
          <CharString index="190">
            hhcurveto
            150 95 75 119 107 -69 59 -126 2 hvcurveto
            51 126 rlineto
            return
          </CharString>
          <CharString index="191">
            -130 214 214 143 130 186 vhcurveto
            return
          </CharString>
          <CharString index="192">
            hlineto
            319 307 184 callsubr
            return
          </CharString>
          <CharString index="193">
            rmoveto
            -87 callgsubr
            return
          </CharString>
          <CharString index="194">
            hlineto
            139 354 221 callgsubr
            return
          </CharString>
          <CharString index="195">
            75 callsubr
            269 343 rlineto
            return
          </CharString>
          <CharString index="196">
            -94 58 vlineto
            98 40 -19 -44 -44 return
          </CharString>
          <CharString index="197">
            -343 136 callsubr
            return
          </CharString>
          <CharString index="198">
            -153 hhcurveto
            -145 return
          </CharString>
          <CharString index="199">
            972 1365 -47 callgsubr
            409 303 rmoveto
            240 303 rlineto
            -208 hlineto
            -210 -303 rlineto
            return
          </CharString>
          <CharString index="200">
            rmoveto
            347 420 rlineto
            -201 hlineto
            -347 -420 rlineto
            -4 vlineto
            347 -420 rlineto
            201 hlineto
            -347 420 rlineto
            endchar
          </CharString>
          <CharString index="201">
            173 -717 172 717 173 -717 1141 -168 return
          </CharString>
          <CharString index="202">
            rmoveto
            105 106 -105 hlineto
            -211 218 callsubr
            return
          </CharString>
          <CharString index="203">
            633 1024 -633 hlineto
            return
          </CharString>
          <CharString index="204">
            -45 callgsubr
            rmoveto
            return
          </CharString>
          <CharString index="205">
            -46 callsubr
            endchar
          </CharString>
          <CharString index="206">
            -172 548 -1314 169 1314 168 hlineto
            endchar
          </CharString>
          <CharString index="207">
            rmoveto
            191 hlineto
            302 307 rlineto
            -211 hlineto
            return
          </CharString>
          <CharString index="208">
            165 -431 304 return
          </CharString>
          <CharString index="209">
            rmoveto
            -188 hlineto
            -285 -315 rlineto
            200 hlineto
            171 197 rlineto
            15 hlineto
            172 -197 rlineto
            199 hlineto
            endchar
          </CharString>
          <CharString index="210">
            34 hvcurveto
            -205 hlineto
            -119 -31 -112 -71 -175 hhcurveto
            -152 -103 52 113 101 90 57 155 hvcurveto
            152 return
          </CharString>
          <CharString index="211">
            370 hmoveto
            478 526 -478 198 1090 -198 -444 -526 444 -198 -1090 vlineto
            endchar
          </CharString>
          <CharString index="212">
            1266 549 rmoveto
            182 -1266 -182 vlineto
            endchar
          </CharString>
          <CharString index="213">
            -67 -59 -59 -70 -21 callgsubr
            return
          </CharString>
          <CharString index="214">
            hvcurveto
            -153 hlineto
            return
          </CharString>
          <CharString index="215">
            196 callgsubr
            -1 -26 -47 -59 -83 -45 return
          </CharString>
          <CharString index="216">
            -840 111 callgsubr
            return
          </CharString>
          <CharString index="217" raw="1">
            16791d0b   
          </CharString>
          <CharString index="218">
            75 callsubr
            272 346 rlineto
            return
          </CharString>
          <CharString index="219">
            188 10 60 105 98 hhcurveto
            103 55 -101 -192 2 hvcurveto
            return
          </CharString>
          <CharString index="220">
            rmoveto
            -240 343 221 callgsubr
            269 -343 rlineto
            return
          </CharString>
          <CharString index="221">
            rmoveto
            121 callgsubr
          </CharString>
          <CharString index="222">
            -186 143 -130 214 214 return
          </CharString>
          <CharString index="223">
            96 callsubr
            endchar
          </CharString>
          <CharString index="224">
            191 rmoveto
            1252 return
          </CharString>
          <CharString index="225">
            -27 -47 -58 vhcurveto
            -84 -44 return
          </CharString>
          <CharString index="226">
            185 callsubr
            189 vlineto
            307 106 180 545 536 -108 182 -305 hvcurveto
            return
          </CharString>
          <CharString index="227">
            -191 hlineto
            -177 -30 -93 -116 -154 hhcurveto
            -191 -111 158 312 hvcurveto
            endchar
          </CharString>
          <CharString index="228">
            7 7 -22 hvcurveto
            -117 vlineto
            -12 44 39 -6 51 hhcurveto
            return
          </CharString>
          <CharString index="229">
            -158 -112 -66 -124 -51 return
          </CharString>
          <CharString index="230">
            -163 vlineto
            -187 return
          </CharString>
          <CharString index="231">
            717 -840 rmoveto
            return
          </CharString>
          <CharString index="232">
            1917 rmoveto
            return
          </CharString>
          <CharString index="233">
            136 rmoveto
            65 52 53 67 67 -52 53 -65 -65 -52 -53 -67 -67 52 -53 65 hvcurveto
            endchar
          </CharString>
          <CharString index="234">
            149 1090 rmoveto
            -168 383 -922 202 922 383 168 vlineto
            endchar
          </CharString>
          <CharString index="235">
            94 243 hvcurveto
            -45 callgsubr
            vlineto
            endchar
          </CharString>
          <CharString index="236">
            rlineto
            -200 hlineto
            return
          </CharString>
          <CharString index="237">
            rmoveto
            208 85 callsubr
            return
          </CharString>
          <CharString index="238">
            hlineto
            164 -146 79 callgsubr
            return
          </CharString>
          <CharString index="239">
            129 -214 -214 return
          </CharString>
          <CharString index="240">
            -192 hlineto
            -89 -27 -97 -55 -129 hhcurveto
            -172 -111 118 184 hvcurveto
            49 return
          </CharString>
          <CharString index="241">
            167 callgsubr
            345 rlineto
            endchar
          </CharString>
          <CharString index="242">
            rmoveto
            74 62 62 75 76 -62 62 -74 -73 -62 -62 -76 -75 62 -62 73 hvcurveto
            endchar
          </CharString>
          <CharString index="243">
            rlineto
            185 hlineto
            return
          </CharString>
          <CharString index="244">
            rlineto
            191 hlineto
            return
          </CharString>
          <CharString index="245">
            rmoveto
            84 45 -154 153 hhcurveto
            145 90 116 184 107 callsubr
            return
          </CharString>
          <CharString index="246">
            42 65 80 98 vvcurveto
            113 173 callgsubr
            -15 -36 vhcurveto
            endchar
          </CharString>
          <CharString index="247">
            1130 1090 rmoveto
            -988 -166 194 return
          </CharString>
          <CharString index="248">
            111 124 vvcurveto
            207 -128 143 return
          </CharString>
          <CharString index="249">
            103 217 hvcurveto
            1098 vlineto
            endchar
          </CharString>
          <CharString index="250">
            -119 -187 vhcurveto
            return
          </CharString>
          <CharString index="251">
            rlineto
            -194 hlineto
            return
          </CharString>
          <CharString index="252">
            652 -516 rmoveto
            139 359 rlineto
            -205 hlineto
            -116 -359 rlineto
            return
          </CharString>
          <CharString index="253">
            131 callgsubr
            endchar
          </CharString>
          <CharString index="254">
            1314 -169 -1314 return
          </CharString>
          <CharString index="255">
            vhcurveto
            163 vlineto
            187 return
          </CharString>
          <CharString index="256">
            rlineto
            -230 hlineto
            return
          </CharString>
          <CharString index="257">
            157 callgsubr
            1486 -67 1314 177 callsubr
            return
          </CharString>
          <CharString index="258">
            -38 callgsubr
            71 48 callgsubr
            -71 -21 callgsubr
            hvcurveto
            return
          </CharString>
          <CharString index="259">
            -18 callgsubr
            22 callsubr
            hvcurveto
            return
          </CharString>
          <CharString index="260">
            -173 134 -110 218 218 134 110 173 vhcurveto
            return
          </CharString>
          <CharString index="261">
            -172 194 callsubr
            return
          </CharString>
          <CharString index="262">
            444 -197 -1090 197 478 return
          </CharString>
          <CharString index="263">
            1228 97 callsubr
            -1152 return
          </CharString>
          <CharString index="264">
            rmoveto
            217 239 rlineto
            -216 hlineto
            -193 -239 rlineto
            469 return
          </CharString>
          <CharString index="265">
            rcurveline
            89 callsubr
            -39 -24 -73 -38 -57 7 7 return
          </CharString>
          <CharString index="266">
            482 405 rmoveto
            952 310 -650 1245 -302 return
          </CharString>
          <CharString index="267">
            hlineto
            136 410 rlineto
            53 vlineto
            endchar
          </CharString>
          <CharString index="268">
            -310 717 -1245 vlineto
            endchar
          </CharString>
          <CharString index="269">
            168 1141 vlineto
            endchar
          </CharString>
          <CharString index="270">
            -502 rmoveto
            116 90 88 116 115 -90 88 -116 return
          </CharString>
          <CharString index="271">
            1639 rmoveto
            -235 hlineto
            -239 -343 rlineto
            205 hlineto
            return
          </CharString>
          <CharString index="272">
            44 39 -30 -58 56 hvcurveto
            -67 70 64 -36 78 hhcurveto
            171 98 return
          </CharString>
          <CharString index="273">
            -34 -45 5 3 -26 vhcurveto
            -168 vlineto
            -3 39 47 -6 45 hhcurveto
            return
          </CharString>
          <CharString index="274">
            143 callgsubr
            -197 140 -140 226 return
          </CharString>
          <CharString index="275">
            1162 549 rmoveto
            182 -1058 -182 vlineto
            endchar
          </CharString>
          <CharString index="276">
            -5 callgsubr
            1 26 return
          </CharString>
          <CharString index="277">
            115 213 callsubr
            return
          </CharString>
          <CharString index="278">
            168 384 -168 hlineto
            return
          </CharString>
          <CharString index="279">
            124 callsubr
            169 return
          </CharString>
          <CharString index="280">
            128 89 97 153 hvcurveto
            return
          </CharString>
          <CharString index="281">
            223 callgsubr
            168 return
          </CharString>
          <CharString index="282">
            hlineto
            232 316 rlineto
            return
          </CharString>
          <CharString index="283">
            140 359 rlineto
            return
          </CharString>
          <CharString index="284">
            -168 -1314 return
          </CharString>
          <CharString index="285">
            156 callsubr
            -181 266 return
          </CharString>
          <CharString index="286">
            -98 -2 -77 -58 -128 hhcurveto
            -128 -77 58 98 -2 hvcurveto
            return
          </CharString>
          <CharString index="287">
            hlineto
            -163 158 rlineto
            -208 hlineto
            280 -261 rlineto
            return
          </CharString>
          <CharString index="288">
            -114 17 callsubr
            -74 78 114 -1 hvcurveto
            return
          </CharString>
          <CharString index="289">
            -1053 rlineto
            182 -45 callgsubr
            -153 -1049 -19 hlineto
            return
          </CharString>
          <CharString index="290">
            130 callsubr
            endchar
          </CharString>
          <CharString index="291">
            rlineto
            -233 hlineto
            return
          </CharString>
          <CharString index="292">
            rmoveto
            -1443 return
          </CharString>
          <CharString index="293">
            165 138 89 116 -89 438 -243 hlineto
            return
          </CharString>
          <CharString index="294">
            123 194 hvcurveto
            90 vlineto
            189 -110 123 return
          </CharString>
          <CharString index="295">
            rmoveto
            106 105 -106 hlineto
            -210 -105 rmoveto
            105 105 -105 hlineto
            return
          </CharString>
          <CharString index="296">
            hlineto
            347 420 rlineto
            4 vlineto
            -347 420 rlineto
            return
          </CharString>
          <CharString index="297">
            717 109 callsubr
            return
          </CharString>
          <CharString index="298">
            975 2074 rmoveto
            -683 -133 683 hlineto
            return
          </CharString>
          <CharString index="299">
            hhcurveto
            -294 -187 -187 -296 hvcurveto
            -165 vlineto
            return
          </CharString>
          <CharString index="300">
            215 callgsubr
            -112 -71 -81 -128 vhcurveto
            endchar
          </CharString>
          <CharString index="301">
            rmoveto
            237 172 -237 hlineto
            return
          </CharString>
          <CharString index="302">
            rmoveto
            237 310 -237 hlineto
            return
          </CharString>
          <CharString index="303">
            2800 -169 return
          </CharString>
          <CharString index="304">
            183 -45 callgsubr
            return
          </CharString>
          <CharString index="305">
            1245 -168 return
          </CharString>
          <CharString index="306">
            -74 callsubr
            hvcurveto
            165 vlineto
            return
          </CharString>
          <CharString index="307">
            1090 116 callgsubr
            return
          </CharString>
          <CharString index="308">
            474 rmoveto
            885 172 -885 hlineto
            endchar
          </CharString>
          <CharString index="309">
            -118 -40 -41 -122 return
          </CharString>
          <CharString index="310">
            63 117 vhcurveto
            754 return
          </CharString>
          <CharString index="311">
            -1141 vlineto
            endchar
          </CharString>
          <CharString index="312">
            -82 -43 -62 -114 -114 43 -61 82 hvcurveto
            return
          </CharString>
          <CharString index="313">
            -35 52 120 hvcurveto
            40 vlineto
            121 35 52 return
          </CharString>
          <CharString index="314">
            vlineto
            272 130 rlineto
            136 vlineto
            -272 return
          </CharString>
          <CharString index="315">
            1518 rmoveto
            -678 -152 678 hlineto
            return
          </CharString>
          <CharString index="316">
            -223 215 -203 179 rlineto
            6 vlineto
            return
          </CharString>
          <CharString index="317">
            -84 -66 -67 -83 -84 66 -67 84 hvcurveto
            endchar
          </CharString>
          <CharString index="318" raw="1">
            b3785f5f 6373420b  
          </CharString>
          <CharString index="319">
            1443 185 callsubr
            return
          </CharString>
          <CharString index="320">
            185 196 callgsubr
            return
          </CharString>
          <CharString index="321">
            vhcurveto
            -227 vlineto
            return
          </CharString>
          <CharString index="322">
            -106 hlineto
            -211 return
          </CharString>
          <CharString index="323">
            202 callsubr
            -34 -45 5 3 return
          </CharString>
          <CharString index="324">
            -401 rmoveto
            677 152 -677 hlineto
            return
          </CharString>
          <CharString index="325">
            -106 rmoveto
            106 106 215 callsubr
            -106 rmoveto
            return
          </CharString>
          <CharString index="326">
            613 -21 rmoveto
            282 214 152 return
          </CharString>
          <CharString index="327">
            633 2048 -633 hlineto
            endchar
          </CharString>
          <CharString index="328">
            rmoveto
            176 hlineto
            return
          </CharString>
          <CharString index="329">
            vhcurveto
            137 vlineto
            return
          </CharString>
          <CharString index="330">
            -172 650 return
          </CharString>
        <CharString name=".notdef">
          endchar
        </CharString>
        <CharString name="A">
          437 567 -105 callgsubr
        </CharString>
        <CharString name="AE">
          369 589 -49 callsubr
        </CharString>
        <CharString name="AEacute">
          1224 125 callsubr
          -232 hlineto
          -294 67 callsubr
          -536 -1021 -49 callsubr
        </CharString>
        <CharString name="AEmacron">
          1160 1836 rmoveto
          -678 -151 678 hlineto
          -791 -1096 -49 callsubr
        </CharString>
        <CharString name="Aacute">
          1036 125 callsubr
          -232 hlineto
          -294 67 callsubr
          -280 -1043 -105 callgsubr
        </CharString>
        <CharString name="Abreve">
          836 1920 rmoveto
          -16 callsubr
          -154 hlineto
          -186 143 84 callsubr
          -553 -1353 -105 callgsubr
        </CharString>
        <CharString name="Abreveacute">
          883 2105 rmoveto
          -201 hlineto
          -165 -229 rlineto
          172 hlineto
          147 -7 rmoveto
          75 callgsubr
          -154 hlineto
          52 callsubr
          -553 -1302 -105 callgsubr
        </CharString>
        <CharString name="Abrevedotbelow">
          836 1920 rmoveto
          -16 callsubr
          -154 hlineto
          -186 143 84 callsubr
          -357 -2102 -38 callsubr
        </CharString>
        <CharString name="Abrevegrave">
          139 callgsubr
          259 -7 rmoveto
          75 callgsubr
          -154 hlineto
          52 callsubr
          -553 -1302 -105 callgsubr
        </CharString>
        <CharString name="Abrevehookabove">
          646 1782 rmoveto
          154 callgsubr
          -107 vlineto
          158 callgsubr
          276 -5 rmoveto
          179 callsubr
          -145 hlineto
          153 callsubr
          -548 -1287 -105 callgsubr
        </CharString>
        <CharString name="Abrevetilde">
          852 2101 rmoveto
          80 callgsubr
          118 87 89 135 hvcurveto
          -700 -276 76 callsubr
          4 -1258 -105 callgsubr
        </CharString>
        <CharString name="Acaron">
          727 1606 rmoveto
          285 315 129 callsubr
          -172 -197 rlineto
          -14 hlineto
          -172 197 129 callsubr
          285 -315 rlineto
          -102 -1039 -105 callgsubr
        </CharString>
        <CharString name="Acircumflex">
          92 callgsubr
          -17 -1043 -105 callgsubr
        </CharString>
        <CharString name="Acircumflexacute">
          1259 2105 rmoveto
          -210 hlineto
          -205 -252 rlineto
          187 hlineto
          -406 -129 rmoveto
          115 callgsubr
          -280 243 rlineto
          -34 callsubr
          -24 -1011 rmoveto
          188 645 rlineto
          7 hlineto
          187 -645 rlineto
          -302 876 rmoveto
          -455 -1443 rlineto
          210 hlineto
          116 398 rlineto
          480 hlineto
          115 -398 rlineto
          221 hlineto
          -455 38 callsubr
          endchar
        </CharString>
        <CharString name="Acircumflexdotbelow">
          92 callgsubr
          179 -1792 -38 callsubr
        </CharString>
        <CharString name="Acircumflexgrave">
          1093 1853 rmoveto
          -205 252 rlineto
          -209 hlineto
          227 -252 rlineto
          -281 -129 rmoveto
          115 callgsubr
          -280 243 rlineto
          -34 callsubr
          -24 -1011 -105 callgsubr
        </CharString>
        <CharString name="Acircumflexhookabove">
          949 1769 rmoveto
          86 34 52 73 86 vvcurveto
          102 -78 68 -119 -50 -52 -8 -12 -25 vhcurveto
          -111 vlineto
          10 21 38 7 34 hhcurveto
          55 36 -28 -43 -41 -30 -37 -54 -21 hvcurveto
          -238 -124 rmoveto
          115 callgsubr
          -280 243 rlineto
          -34 callsubr
          -24 -1011 -105 callgsubr
        </CharString>
        <CharString name="Acircumflextilde">
          860 2122 rmoveto
          -14 callgsubr
          173 callsubr
          -367 -398 rmoveto
          115 callgsubr
          -280 243 rlineto
          -34 callsubr
          -24 -1011 -105 callgsubr
        </CharString>
        <CharString name="Acyrillic">
          437 567 -105 callgsubr
        </CharString>
        <CharString name="Adblgrave">
          951 1610 rmoveto
          -281 307 rlineto
          -212 hlineto
          302 -307 rlineto
          -199 hmoveto
          -282 307 rlineto
          -211 hlineto
          302 -307 rlineto
          67 -1043 -105 callgsubr
        </CharString>
        <CharString name="Adieresis">
          843 1643 -92 callgsubr
          14 -1076 -105 callgsubr
        </CharString>
        <CharString name="Adieresismacron">
          191 callsubr
          -254 -256 rmoveto
          -66 53 -54 64 -18 callgsubr
          -64 -53 -54 -67 vhcurveto
          -408 hmoveto
          -66 52 -54 65 -18 callgsubr
          -65 -52 -54 -67 vhcurveto
          124 -1118 -105 callgsubr
        </CharString>
        <CharString name="Adotaccent">
          633 1628 rmoveto
          -99 callgsubr
          -196 -1061 -105 callgsubr
        </CharString>
        <CharString name="Adotbelow">
          633 -182 -38 callsubr
        </CharString>
        <CharString name="Adotmacron">
          191 callsubr
          -466 -242 rmoveto
          -71 56 -56 69 69 55 56 71 71 -55 56 -69 -69 -56 -56 -71 vhcurveto
          -72 -1132 -105 callgsubr
        </CharString>
        <CharString name="Agrave">
          755 1610 rmoveto
          -294 307 184 callsubr
          319 -307 rlineto
          -110 -1043 -105 callgsubr
        </CharString>
        <CharString name="Ahookabove">
          638 1569 rmoveto
          104 39 67 82 94 vvcurveto
          112 -88 72 -131 -53 144 callgsubr
          -123 vlineto
          13 25 43 9 43 hhcurveto
          64 41 -31 -45 -43 -42 -41 -60 -21 hvcurveto
          -128 -1094 -105 callgsubr
        </CharString>
        <CharString name="Ainvertedbreve">
          990 1604 rmoveto
          187 -143 122 callgsubr
          154 hlineto
          110 1 83 76 119 hhcurveto
          119 83 -76 -110 1 hvcurveto
          -399 -1037 -105 callgsubr
        </CharString>
        <CharString name="Alphagreek">
          437 567 -105 callgsubr
        </CharString>
        <CharString name="Alphatonosgreek">
          376 97 callsubr
          -202 hlineto
          -82 -351 rlineto
          151 hlineto
          272 -525 rmoveto
          152 630 rlineto
          8 hlineto
          151 -630 rlineto
          136 -567 rmoveto
          219 hlineto
          -390 -57 callsubr
          -388 -1443 150 callgsubr
          96 398 rlineto
          393 hlineto
          endchar
        </CharString>
        <CharString name="Amacron">
          972 1836 rmoveto
          -678 -151 678 hlineto
          -535 -1118 -105 callgsubr
        </CharString>
        <CharString name="Aogonek">
          437 567 -51 callsubr
          112 -387 rlineto
          -110 -67 -46 -70 -97 vvcurveto
          -128 102 -87 150 46 50 7 10 26 vhcurveto
          130 vlineto
          -4 -15 -32 -3 -27 hhcurveto
          -78 -52 43 64 84 64 59 137 45 hvcurveto
          endchar
        </CharString>
        <CharString name="Aring">
          633 1849 rmoveto
          57 43 -42 -57 -57 -42 -43 -58 147 callgsubr
          hvcurveto
          -292 vmoveto
          49 callsubr
          -196 -990 -105 callgsubr
        </CharString>
        <CharString name="Aringacute">
          858 2170 rmoveto
          -196 hlineto
          -113 -178 rlineto
          173 hlineto
          -89 -157 rmoveto
          57 43 -42 -57 -58 -42 -42 -58 147 callgsubr
          hvcurveto
          -293 vmoveto
          111 85 85 109 109 -85 84 -111 -111 -85 -84 -109 -109 86 -85 110 hvcurveto
          -196 -975 -105 callgsubr
        </CharString>
        <CharString name="Aringbelow">
          633 -463 88 callgsubr
          64 49 -50 -66 -66 -49 -50 -64 hvcurveto
          350 vmoveto
          -126 112 callgsubr
          -105 126 126 103 105 129 129 -103 105 -126 hvcurveto
          -196 680 -51 callsubr
          115 -398 rlineto
          endchar
        </CharString>
        <CharString name="Atilde">
          867 1889 rmoveto
          -54 callsubr
          101 31 124 callgsubr
          130 125 callgsubr
          -567 -1322 -105 callgsubr
        </CharString>
        <CharString name="B">
          -95 callgsubr
          endchar
        </CharString>
        <CharString name="Bdotaccent">
          -95 callgsubr
          -32 1456 -76 callsubr
          endchar
        </CharString>
        <CharString name="Bdotbelow">
          -95 callgsubr
          -32 -630 -76 callsubr
          endchar
        </CharString>
        <CharString name="Becyrillic">
          378 701 rmoveto
          270 hlineto
          192 114 -96 -165 -164 -113 -96 -193 hvcurveto
          -270 hlineto
          695 vmoveto
          383 660 185 -869 -1443 529 vlineto
          280 189 177 263 259 -193 176 -281 hvcurveto
          endchar
        </CharString>
        <CharString name="Betagreek">
          -95 callgsubr
          endchar
        </CharString>
        <CharString name="Blinebelow">
          -95 callgsubr
          306 -573 -9 callgsubr
        </CharString>
        <CharString name="C">
          665 161 rmoveto
          14 callgsubr
          267 vlineto
          -92 callsubr
          endchar
        </CharString>
        <CharString name="Cacute">
          665 161 rmoveto
          14 callgsubr
          267 vlineto
          -92 callsubr
          -133 1449 183 callsubr
        </CharString>
        <CharString name="Ccaron">
          1034 98 callgsubr
          -415 -751 rmoveto
          -3 callsubr
        </CharString>
        <CharString name="Ccedilla">
          335 855 -67 callgsubr
        </CharString>
        <CharString name="Ccedillaacute">
          1059 125 callsubr
          -233 hlineto
          -294 -307 rlineto
          208 hlineto
          -405 -755 -67 callgsubr
        </CharString>
        <CharString name="Ccircumflex">
          665 161 rmoveto
          14 callgsubr
          267 vlineto
          -92 callsubr
          85 1764 102 callsubr
        </CharString>
        <CharString name="Cdotaccent">
          665 161 rmoveto
          14 callgsubr
          267 vlineto
          -92 callsubr
          -9 1467 -76 callsubr
          endchar
        </CharString>
        <CharString name="Checyrillic">
          1133 97 callsubr
          -208 -622 hlineto
          -22 callsubr
          -621 208 hlineto
          endchar
        </CharString>
        <CharString name="Chigreek">
          -59 callsubr
          endchar
        </CharString>
        <CharString name="D">
          -69 callgsubr
          endchar
        </CharString>
        <CharString name="Dcaron">
          963 -70 callsubr
          -321 -348 rmoveto
          190 hlineto
          288 137 -172 -362 -369 -135 -170 -290 hvcurveto
          -190 hlineto
          -209 1258 185 callsubr
          422 vlineto
          409 206 244 482 475 -208 242 -407 hvcurveto
          endchar
        </CharString>
        <CharString name="Dcircumflexbelow">
          -69 callgsubr
          114 -349 26 callgsubr
        </CharString>
        <CharString name="Dcommaaccent">
          -69 callgsubr
          210 -688 rmoveto
          140 16 callsubr
        </CharString>
        <CharString name="Dcroat">
          368 177 rmoveto
          475 276 170 -276 444 183 vlineto
          290 137 -173 -369 -377 -133 -170 -291 hvcurveto
          -382 1266 rmoveto
          -621 -147 -170 147 -652 398 vlineto
          409 206 244 482 475 -207 242 -408 hvcurveto
          endchar
        </CharString>
        <CharString name="Ddotaccent">
          -69 callgsubr
          227 1443 -76 callsubr
          endchar
        </CharString>
        <CharString name="Ddotbelow">
          -69 callgsubr
          227 -643 -76 callsubr
          endchar
        </CharString>
        <CharString name="Decyrillic">
          1055 hmoveto
          -285 190 470 -153 1258 -813 vlineto
          -47 -875 -12 -221 -37 -107 -82 -55 rlinecurve
          -82 -470 191 285 hlineto
          254 1259 rmoveto
          421 -1074 -549 17 hlineto
          53 68 26 102 10 181 rrcurveto
          endchar
        </CharString>
        <CharString name="Deltagreek">
          81 hmoveto
          1104 132 hlineto
          -436 1311 rlineto
          -232 hlineto
          -436 -1311 rlineto
          221 53 rmoveto
          14 vlineto
          323 1016 rlineto
          7 hlineto
          321 -1016 rlineto
          -14 vlineto
          endchar
        </CharString>
        <CharString name="Djecyrillic">
          754 -23 rmoveto
          -9 21 53 -7 46 hhcurveto
          237 144 175 295 283 -151 182 -251 -152 -91 -56 -40 -42 hvcurveto
          -13 459 371 184 -926 -184 359 -1259 196 600 hlineto
          50 41 89 60 126 hhcurveto
          151 90 -110 -177 -177 -77 -102 -127 -36 -37 5 7 -21 hvcurveto
          endchar
        </CharString>
        <CharString name="Dlinebelow">
          -69 callgsubr
          565 -586 -9 callgsubr
        </CharString>
        <CharString name="Dzecyrillic">
          126 390 -104 callgsubr
          endchar
        </CharString>
        <CharString name="Dzhecyrillic">
          535 -285 rmoveto
          196 285 430 -45 callgsubr
          -208 -1258 -640 1258 -208 -1443 430 hlineto
          endchar
        </CharString>
        <CharString name="E">
          1089 185 -51 callgsubr
        </CharString>
        <CharString name="Eacute">
          1089 185 -101 callgsubr
          -563 1610 rmoveto
          207 52 callgsubr
        </CharString>
        <CharString name="Ebreve">
          1089 185 -101 callgsubr
          -791 1920 rmoveto
          115 callsubr
          144 130 186 vhcurveto
          -155 19 callsubr
        </CharString>
        <CharString name="Ecaron">
          1034 -70 callsubr
          340 -1421 -51 callgsubr
        </CharString>
        <CharString name="Ecedilla">
          1089 1258 rmoveto
          185 -868 -1443 373 vlineto
          -59 -142 rlineto
          -42 callgsubr
          51 126 rlineto
          352 185 -659 462 622 174 -622 437 hlineto
          endchar
        </CharString>
        <CharString name="Ecedillabreve">
          858 1920 rmoveto
          -16 callsubr
          -154 hlineto
          115 callsubr
          144 130 186 vhcurveto
          76 -662 rmoveto
          185 -868 -1443 373 vlineto
          -59 -142 rlineto
          -42 callgsubr
          51 126 rlineto
          352 185 -659 462 622 174 -622 437 hlineto
          endchar
        </CharString>
        <CharString name="Ecircumflex">
          1089 185 -101 callgsubr
          -340 1925 -65 callgsubr
          endchar
        </CharString>
        <CharString name="Ecircumflexacute">
          1089 185 -101 callgsubr
          -223 1853 rmoveto
          187 hlineto
          228 252 rlineto
          -210 hlineto
          -313 -284 7 callgsubr
          endchar
        </CharString>
        <CharString name="Ecircumflexbelow">
          1089 185 -101 callgsubr
          -547 -164 26 callsubr
        </CharString>
        <CharString name="Ecircumflexdotbelow">
          1089 185 -101 callgsubr
          -340 1925 -65 callgsubr
          -379 -2055 73 callsubr
        </CharString>
        <CharString name="Ecircumflexgrave">
          1089 185 -101 callgsubr
          27 1853 rmoveto
          -205 252 rlineto
          -210 hlineto
          227 -252 rlineto
          -170 -32 7 callgsubr
          endchar
        </CharString>
        <CharString name="Ecircumflexhookabove">
          1089 185 -101 callgsubr
          -304 2001 rmoveto
          10 21 39 7 33 hhcurveto
          55 36 -28 -43 -41 -30 -37 -54 -21 hvcurveto
          86 -79 rlineto
          86 34 52 73 86 vvcurveto
          102 -78 68 -119 -49 -52 -8 -12 -26 vhcurveto
          -27 -291 7 callgsubr
          endchar
        </CharString>
        <CharString name="Ecircumflextilde">
          1089 185 -101 callgsubr
          -331 1821 7 callgsubr
          -241 294 rmoveto
          173 callsubr
          -132 hlineto
          -14 callgsubr
          endchar
        </CharString>
        <CharString name="Ecyrillic">
          335 647 -9 callsubr
        </CharString>
        <CharString name="Edblgrave">
          692 125 callsubr
          -211 hlineto
          301 -307 rlineto
          192 hlineto
          -673 27 callsubr
          506 -1425 -51 callgsubr
        </CharString>
        <CharString name="Edieresis">
          8 callgsubr
        </CharString>
        <CharString name="Edotaccent">
          1089 185 -101 callgsubr
          -431 1628 -72 callsubr
        </CharString>
        <CharString name="Edotbelow">
          1089 185 -101 callgsubr
          -434 -445 73 callsubr
        </CharString>
        <CharString name="Efcyrillic">
          534 -23 rmoveto
          198 161 hlineto
          331 9 194 214 363 vvcurveto
          362 -194 214 -331 10 vhcurveto
          156 -198 -156 vlineto
          -331 -10 -194 -214 -362 vvcurveto
          -363 194 -214 331 -9 vhcurveto
          -329 586 rmoveto
          256 126 155 206 9 vhcurveto
          -839 vlineto
          -207 7 -125 155 257 vvcurveto
          524 420 rmoveto
          206 -9 126 -155 -256 vvcurveto
          -257 -125 -155 -207 -7 vhcurveto
          endchar
        </CharString>
        <CharString name="Egrave">
          483 125 callsubr
          -233 hlineto
          320 67 callsubr
          312 -1425 -51 callgsubr
        </CharString>
        <CharString name="Ehookabove">
          1089 185 -101 callgsubr
          -616 1820 rmoveto
          13 25 43 9 43 hhcurveto
          64 41 -31 -45 -43 -42 -41 -60 -21 hvcurveto
          73 -92 rlineto
          104 39 67 82 94 vvcurveto
          112 -88 72 -130 -54 144 callgsubr
          endchar
        </CharString>
        <CharString name="Einvertedbreve">
          452 1604 rmoveto
          110 1 83 76 119 hhcurveto
          119 83 -76 -110 1 hvcurveto
          155 hlineto
          187 -144 122 callgsubr
          791 -1419 -51 callgsubr
        </CharString>
        <CharString name="Elcyrillic">
          1133 97 callsubr
          -845 hlineto
          51 callsubr
          205 hlineto
          endchar
        </CharString>
        <CharString name="Emacron">
          1089 185 -101 callgsubr
          -95 109 callgsubr
          endchar
        </CharString>
        <CharString name="Emacronacute">
          720 1865 rmoveto
          216 239 216 callgsubr
          -194 -239 rlineto
          469 -252 rmoveto
          133 -683 -133 vlineto
          776 -1428 -51 callgsubr
        </CharString>
        <CharString name="Emacrongrave">
          1089 185 -101 callgsubr
          -93 1613 36 callgsubr
        </CharString>
        <CharString name="Emcyrillic">
          -73 callsubr
          endchar
        </CharString>
        <CharString name="Encyrillic">
          1123 hmoveto
          -56 callsubr
          endchar
        </CharString>
        <CharString name="Eogonek">
          878 hmoveto
          -14 vlineto
          -94 -58 -47 -73 -88 vvcurveto
          -121 100 -84 143 42 43 6 12 31 vhcurveto
          129 vlineto
          -4 -16 -29 -3 -23 hhcurveto
          -71 -52 46 63 77 55 67 115 46 hvcurveto
          14 6 rlineto
          178 -659 462 622 174 -622 437 659 185 -868 184 callgsubr
        </CharString>
        <CharString name="Epsilongreek">
          1089 185 -51 callgsubr
        </CharString>
        <CharString name="Epsilontonosgreek">
          1130 185 rmoveto
          -473 462 436 174 -436 437 473 185 -675 -1443 675 hlineto
          -1082 56 callgsubr
          -202 hlineto
          endchar
        </CharString>
        <CharString name="Ercyrillic">
          -61 callgsubr
          endchar
        </CharString>
        <CharString name="Ereversedcyrillic">
          269 972 rmoveto
          -91 callgsubr
        </CharString>
        <CharString name="Escyrillic">
          665 161 rmoveto
          14 callgsubr
          267 vlineto
          -92 callsubr
          endchar
        </CharString>
        <CharString name="Etagreek">
          1123 hmoveto
          -56 callsubr
          endchar
        </CharString>
        <CharString name="Etatonosgreek">
          1179 hmoveto
          -45 callgsubr
          -185 -617 -382 617 -186 -1443 186 646 382 -646 vlineto
          -963 56 callgsubr
          -201 hlineto
          endchar
        </CharString>
        <CharString name="Eth">
          357 185 rmoveto
          461 253 177 -253 435 190 vlineto
          288 137 -172 -362 -369 -135 -170 -290 hvcurveto
          -399 1258 rmoveto
          -620 -131 -177 131 -646 422 vlineto
          409 206 244 482 475 -208 242 -407 hvcurveto
          endchar
        </CharString>
        <CharString name="Etilde">
          1089 185 -101 callgsubr
          -283 1612 rmoveto
          131 125 callgsubr
          -138 hlineto
          -94 -4 -35 -46 -57 -90 99 callgsubr
        </CharString>
        <CharString name="Etildebelow">
          1089 185 -101 callgsubr
          -573 -302 rmoveto
          84 44 -153 10 callgsubr
          184 196 callgsubr
          118 callsubr
          153 -154 -25 callgsubr
          48 58 vhcurveto
          endchar
        </CharString>
        <CharString name="Euro">
          1200 -15 rmoveto
          186 vlineto
          -5 -37 -49 -3 -53 hhcurveto
          -281 -172 112 229 -72 hvcurveto
          534 129 -564 hlineto
          -3 28 -1 29 32 vvcurveto
          27 1 27 3 30 vhcurveto
          564 127 -536 hlineto
          233 71 172 114 286 hhcurveto
          58 41 -3 -6 35 hvcurveto
          185 vlineto
          8 -36 -59 4 -51 hhcurveto
          -414 -250 -181 -354 -74 hvcurveto
          -212 -127 194 hlineto
          -3 -24 -1 -28 -32 vvcurveto
          -36 2 -28 3 -25 vhcurveto
          -195 -129 213 hlineto
          -350 76 249 -178 412 hhcurveto
          52 53 3 6 44 hvcurveto
          endchar
        </CharString>
        <CharString name="F">
          55 callsubr
          endchar
        </CharString>
        <CharString name="Fdotaccent">
          55 callsubr
          397 1628 -72 callsubr
        </CharString>
        <CharString name="G">
          953 450 -100 callsubr
          endchar
        </CharString>
        <CharString name="Gacute">
          953 450 -100 callsubr
          -424 1035 66 callgsubr
          endchar
        </CharString>
        <CharString name="Gammagreek">
          249 hmoveto
          208 1258 661 185 -869 hlineto
          endchar
        </CharString>
        <CharString name="Gbreve">
          953 450 -100 callsubr
          -665 1345 rmoveto
          -186 144 -130 214 213 144 130 186 vhcurveto
          -155 hlineto
          -109 -1 -83 -76 -118 hhcurveto
          -119 -83 76 109 -1 hvcurveto
          endchar
        </CharString>
        <CharString name="Gcaron">
          1024 39 callgsubr
          189 hlineto
          213 -1156 -100 callsubr
          endchar
        </CharString>
        <CharString name="Gcircumflex">
          953 450 -100 callsubr
          -213 1350 rmoveto
          -189 hlineto
          -284 -315 rlineto
          199 hlineto
          172 197 rlineto
          15 hlineto
          172 -197 rlineto
          199 hlineto
          endchar
        </CharString>
        <CharString name="Gcommaaccent">
          953 450 -100 callsubr
          -321 -1078 rmoveto
          139 16 callsubr
        </CharString>
        <CharString name="Gdotaccent">
          953 450 -100 callsubr
          -307 1053 -76 callsubr
          endchar
        </CharString>
        <CharString name="Gecyrillic">
          1228 1443 93 callgsubr
        </CharString>
        <CharString name="Geupturncyrillic">
          1045 1720 rmoveto
          -277 -972 -185 241 -1073 -241 -185 712 185 -261 1073 521 -251 189 713 vlineto
          endchar
        </CharString>
        <CharString name="Gjecyrillic">
          1069 125 callsubr
          -233 hlineto
          -293 67 callsubr
          478 -167 93 callgsubr
        </CharString>
        <CharString name="Gmacron">
          953 450 -100 callsubr
          31 1110 47 callsubr
          endchar
        </CharString>
        <CharString name="H">
          1123 hmoveto
          -56 callsubr
          endchar
        </CharString>
        <CharString name="Hardsigncyrillic">
          520 742 rmoveto
          227 hlineto
          171 102 -105 -177 -176 -101 -104 -172 hvcurveto
          -227 hlineto
          741 vmoveto
          522 -499 -184 290 -1259 485 vlineto
          257 174 185 275 275 -178 186 -262 hvcurveto
          endchar
        </CharString>
        <CharString name="Hbar">
          360 825 rmoveto
          256 544 -256 vlineto
          -540 -182 rmoveto
          536 -643 209 1078 116 154 -116 211 -209 -211 -536 211 -209 -211 -114 -154 114 -1078 209 hlineto
          endchar
        </CharString>
        <CharString name="Hbrevebelow">
          1123 hmoveto
          -56 callsubr
          -284 -326 rmoveto
          -127 -71 81 112 -45 callsubr
          -112 97 callgsubr
          endchar
        </CharString>
        <CharString name="Hcaron">
          1012 -70 callsubr
          396 -1606 rmoveto
          -56 callsubr
          endchar
        </CharString>
        <CharString name="Hcedilla">
          917 97 callsubr
          -615 -568 615 -206 -1443 62 vlineto
          -58 -142 rlineto
          89 callsubr
          -40 -24 -73 -37 -58 121 callsubr
          151 94 75 119 107 -68 59 -126 2 hvcurveto
          51 126 rlineto
          643 568 -643 206 -45 callgsubr
          vlineto
          endchar
        </CharString>
        <CharString name="Hcircumflex">
          1123 hmoveto
          -56 callsubr
          -190 1925 -65 callgsubr
          endchar
        </CharString>
        <CharString name="Hdieresis">
          1123 hmoveto
          -56 callsubr
          -494 1643 -104 callsubr
          endchar
        </CharString>
        <CharString name="Hdotaccent">
          1123 hmoveto
          -56 callsubr
          -284 1628 rmoveto
          43 callsubr
        </CharString>
        <CharString name="Hdotbelow">
          1123 hmoveto
          -56 callsubr
          -284 71 callsubr
          endchar
        </CharString>
        <CharString name="I">
          1031 hmoveto
          16 callgsubr
        </CharString>
        <CharString name="IAcyrillic">
          939 552 -67 callsubr
        </CharString>
        <CharString name="IJ">
          385 hmoveto
          23 callsubr
        </CharString>
        <CharString name="IJacute">
          212 108 callgsubr
          323 -307 -44 callgsubr
          -738 -1917 rmoveto
          23 callsubr
        </CharString>
        <CharString name="IUcyrillic">
          793 1290 -80 callgsubr
        </CharString>
        <CharString name="Iacute">
          1031 hmoveto
          -90 callsubr
          275 164 callgsubr
          endchar
        </CharString>
        <CharString name="Ibreve">
          1031 hmoveto
          -90 callsubr
          41 1920 rmoveto
          -186 143 -12 callgsubr
        </CharString>
        <CharString name="Icaron">
          1012 -70 callsubr
          304 -1606 13 callgsubr
        </CharString>
        <CharString name="Icircumflex">
          1031 hmoveto
          -90 callsubr
          492 1925 -65 callgsubr
          endchar
        </CharString>
        <CharString name="Icyrillic">
          1031 hmoveto
          16 callgsubr
        </CharString>
        <CharString name="Idblgrave">
          670 125 callsubr
          -212 40 callsubr
          -672 27 callsubr
          470 -1610 13 callgsubr
        </CharString>
        <CharString name="Idieresis">
          1031 hmoveto
          -90 callsubr
          188 1643 -104 callsubr
          endchar
        </CharString>
        <CharString name="Idieresisacute">
          1031 hmoveto
          -90 callsubr
          271 1876 rmoveto
          188 hlineto
          225 229 rlineto
          -218 hlineto
          -271 -540 5 callgsubr
        </CharString>
        <CharString name="Idotaccent">
          1031 hmoveto
          -90 callsubr
          398 1628 rmoveto
          43 callsubr
        </CharString>
        <CharString name="Idotbelow">
          1031 hmoveto
          -90 callsubr
          397 -458 -72 callsubr
        </CharString>
        <CharString name="Iecyrillic">
          1089 185 -51 callgsubr
        </CharString>
        <CharString name="Igrave">
          461 65 callgsubr
          276 -1610 13 callgsubr
        </CharString>
        <CharString name="Ihookabove">
          1031 hmoveto
          -90 callsubr
          216 54 callsubr
        </CharString>
        <CharString name="Iicyrillic">
          144 1443 -46 callgsubr
        </CharString>
        <CharString name="Iinvertedbreve">
          430 -11 callgsubr
          -143 -129 -187 vhcurveto
          755 -1604 13 callgsubr
        </CharString>
        <CharString name="Iishortcyrillic">
          62 callsubr
          -309 -487 -46 callgsubr
        </CharString>
        <CharString name="Imacron">
          1031 hmoveto
          -90 callsubr
          737 109 callgsubr
          endchar
        </CharString>
        <CharString name="Iocyrillic">
          8 callgsubr
        </CharString>
        <CharString name="Iogonek">
          1031 1262 rmoveto
          181 -796 -181 294 -1081 -294 -181 621 vlineto
          -101 -58 -56 -88 -101 vvcurveto
          -112 89 -79 126 40 43 7 12 34 vhcurveto
          133 vlineto
          -5 -16 -24 -2 -23 hhcurveto
          -65 -41 36 58 72 54 65 112 60 hvcurveto
          3 2 rlineto
          181 -294 1081 vlineto
          endchar
        </CharString>
        <CharString name="Iotadieresisgreek">
          1031 hmoveto
          -90 callsubr
          188 1643 -104 callsubr
          endchar
        </CharString>
        <CharString name="Iotagreek">
          1031 hmoveto
          16 callgsubr
        </CharString>
        <CharString name="Iotatonosgreek">
          1184 hmoveto
          181 -264 1081 264 181 -716 -181 263 -1081 -263 -181 vlineto
          -375 56 callgsubr
          -201 hlineto
          endchar
        </CharString>
        <CharString name="Iotatonosgreek.1">
          890 hmoveto
          -45 callgsubr
          -208 185 callgsubr
          -530 56 callgsubr
          -202 hlineto
          endchar
        </CharString>
        <CharString name="Itilde">
          1031 hmoveto
          -90 callsubr
          549 42 callsubr
        </CharString>
        <CharString name="Itildebelow">
          1031 hmoveto
          -90 callsubr
          258 -314 214 callgsubr
          154 hhcurveto
          144 91 116 184 196 callgsubr
          118 callsubr
          153 -154 -41 callgsubr
        </CharString>
        <CharString name="J">
          -16 callgsubr
          endchar
        </CharString>
        <CharString name="Jcircumflex">
          -16 callgsubr
          180 1955 -65 callgsubr
          endchar
        </CharString>
        <CharString name="Jecyrillic">
          -16 callgsubr
          endchar
        </CharString>
        <CharString name="K">
          401 hmoveto
          -69 callsubr
          endchar
        </CharString>
        <CharString name="Kacute">
          401 hmoveto
          -69 callsubr
          345 1610 66 callgsubr
          endchar
        </CharString>
        <CharString name="Kacyrillic">
          353 97 callsubr
          212 callgsubr
          641 44 hlineto
          579 -641 rlineto
          257 hlineto
          -662 741 614 702 rlineto
          -238 hlineto
          -550 -634 rlineto
          -44 hlineto
          endchar
        </CharString>
        <CharString name="Kappagreek">
          401 hmoveto
          -69 callsubr
          endchar
        </CharString>
        <CharString name="Kcaron">
          1046 39 callgsubr
          188 hlineto
          -360 -1606 rmoveto
          -69 callsubr
          endchar
        </CharString>
        <CharString name="Kcommaaccent">
          401 hmoveto
          -69 callsubr
          453 -503 37 callgsubr
        </CharString>
        <CharString name="Kdotbelow">
          401 hmoveto
          -69 callsubr
          485 71 callsubr
          endchar
        </CharString>
        <CharString name="Kjecyrillic">
          518 1610 66 callgsubr
          -459 -474 rmoveto
          212 callgsubr
          641 44 hlineto
          579 -641 rlineto
          257 hlineto
          -662 741 614 702 rlineto
          -238 hlineto
          -550 -634 rlineto
          -44 hlineto
          endchar
        </CharString>
        <CharString name="Klinebelow">
          401 hmoveto
          -69 callsubr
          824 -401 -25 callsubr
          endchar
        </CharString>
        <CharString name="L">
          -21 callsubr
          endchar
        </CharString>
        <CharString name="Lacute">
          -21 callsubr
          -895 164 callgsubr
          endchar
        </CharString>
        <CharString name="Lambdagreek">
          76 hmoveto
          210 hlineto
          339 1205 rlineto
          7 hlineto
          337 -1205 rlineto
          221 hlineto
          -441 -57 callsubr
          endchar
        </CharString>
        <CharString name="Lcaron">
          780 97 callsubr
          -486 138 vlineto
          41 486 rlineto
          170 -1255 rmoveto
          -669 1255 -206 -1443 875 hlineto
          endchar
        </CharString>
        <CharString name="Lcircumflexbelow">
          -21 callsubr
          -553 -164 26 callsubr
        </CharString>
        <CharString name="Lcommaaccent">
          -21 callsubr
          -456 -503 37 callgsubr
        </CharString>
        <CharString name="Ldot">
          -21 callsubr
          -160 849 -72 callsubr
        </CharString>
        <CharString name="Ldotbelow">
          -21 callsubr
          -440 -458 -72 callsubr
        </CharString>
        <CharString name="Ldotbelowmacron">
          -21 callsubr
          -440 -458 -79 callgsubr
          7 2143 47 callsubr
          endchar
        </CharString>
        <CharString name="Ljecyrillic">
          776 742 rmoveto
          95 hlineto
          132 78 -103 -178 -178 -78 -103 -132 hvcurveto
          -95 hlineto
          -390 1089 rmoveto
          211 -1269 309 hlineto
          217 143 176 284 284 -143 176 -217 hvcurveto
          -122 523 -571 hlineto
          -33 -906 rlineto
          -267 -9 -34 -92 -86 hhcurveto
          -19 -20 3 4 -12 hvcurveto
          -184 vlineto
          -7 18 28 -5 30 hhcurveto
          189 79 153 388 14 hvcurveto
          endchar
        </CharString>
        <CharString name="Llinebelow">
          -21 callsubr
          -101 -401 -9 callgsubr
        </CharString>
        <CharString name="Lslash">
          460 188 rmoveto
          481 vlineto
          500 280 rlineto
          182 vlineto
          -500 -283 rlineto
          595 -206 -712 vlineto
          -168 -95 rlineto
          -176 vlineto
          168 94 rlineto
          -554 875 188 vlineto
          endchar
        </CharString>
        <CharString name="M">
          -73 callsubr
          endchar
        </CharString>
        <CharString name="Macute">
          -73 callsubr
          232 108 callgsubr
          endchar
        </CharString>
        <CharString name="Mdotaccent">
          -73 callsubr
          356 1628 -76 callsubr
          endchar
        </CharString>
        <CharString name="Mdotbelow">
          -73 callsubr
          356 71 callsubr
          endchar
        </CharString>
        <CharString name="Mugreek">
          -73 callsubr
          endchar
        </CharString>
        <CharString name="N">
          330 hmoveto
          82 callsubr
        </CharString>
        <CharString name="Nacute">
          330 hmoveto
          -72 callgsubr
          362 164 callgsubr
          endchar
        </CharString>
        <CharString name="Ncaron">
          1009 -70 callsubr
          -394 -1606 81 callgsubr
        </CharString>
        <CharString name="Ncircumflexbelow">
          330 hmoveto
          -72 callgsubr
          374 -164 26 callgsubr
        </CharString>
        <CharString name="Ncommaaccent">
          330 hmoveto
          -72 callgsubr
          452 -503 rmoveto
          139 16 callsubr
        </CharString>
        <CharString name="Ndotaccent">
          330 hmoveto
          -72 callgsubr
          485 1628 -72 callsubr
        </CharString>
        <CharString name="Ndotbelow">
          330 hmoveto
          -72 callgsubr
          487 -458 -76 callsubr
          endchar
        </CharString>
        <CharString name="Ngrave">
          458 65 callsubr
          -422 -1610 81 callgsubr
        </CharString>
        <CharString name="Njecyrillic">
          760 657 rmoveto
          87 hlineto
          130 74 -87 -152 -160 -76 -93 -128 hvcurveto
          -87 hlineto
          -498 -165 rmoveto
          654 318 -654 297 vlineto
          216 139 164 257 249 -139 159 -216 hvcurveto
          -113 614 -184 -614 -318 614 -179 -1443 hlineto
          endchar
        </CharString>
        <CharString name="Nlinebelow">
          330 hmoveto
          -72 callgsubr
          825 -401 -9 callgsubr
        </CharString>
        <CharString name="Ntilde">
          330 hmoveto
          -72 callgsubr
          636 1612 rmoveto
          131 125 callgsubr
          -137 hlineto
          -94 -4 -36 -46 -56 -91 99 callgsubr
        </CharString>
        <CharString name="Nugreek">
          330 hmoveto
          82 callsubr
        </CharString>
        <CharString name="NumberSignCyrillic">
          232 hmoveto
          1053 18 vlineto
          299 182 callsubr
          -297 1049 rlineto
          -184 -1443 hlineto
          960 1112 rmoveto
          95 76 77 95 95 -76 77 -95 -95 -76 -77 -95 -95 76 -77 95 hvcurveto
          167 -269 rmoveto
          124 -336 -124 vlineto
          endchar
        </CharString>
        <CharString name="O">
          -106 callgsubr
          endchar
        </CharString>
        <CharString name="OE">
          226 817 rmoveto
          320 63 132 153 155 68 -144 -328 vhcurveto
          -150 vlineto
          -329 -68 -144 -155 -153 -63 133 320 vhcurveto
          449 -422 rmoveto
          15 -205 568 189 -401 453 366 184 -366 427 401 190 -568 -209 -15 hlineto
          165 -42 -91 78 -155 hhcurveto
          -245 -116 -206 -438 hvcurveto
          -222 vlineto
          -439 116 -205 245 157 91 77 161 40 vhcurveto
          endchar
        </CharString>
        <CharString name="Oacute">
          -106 callgsubr
          -123 1450 -44 callgsubr
          endchar
        </CharString>
        <CharString name="Obreve">
          -106 callgsubr
          -357 1760 rmoveto
          -186 143 -12 callgsubr
        </CharString>
        <CharString name="Ocaron">
          1012 -70 callsubr
          -420 -771 -98 callgsubr
        </CharString>
        <CharString name="Ocircumflex">
          -106 callgsubr
          94 1765 -65 callgsubr
          endchar
        </CharString>
        <CharString name="Ocircumflexacute">
          -106 callgsubr
          211 1693 rmoveto
          187 hlineto
          228 252 rlineto
          -210 hlineto
          -313 -284 -53 callgsubr
          endchar
        </CharString>
        <CharString name="Ocircumflexdotbelow">
          -106 callgsubr
          94 1765 -65 callgsubr
          -379 -2068 rmoveto
          43 callsubr
        </CharString>
        <CharString name="Ocircumflexgrave">
          -106 callgsubr
          460 1693 rmoveto
          -205 252 rlineto
          -209 hlineto
          227 -252 rlineto
          -170 -32 -53 callgsubr
          endchar
        </CharString>
        <CharString name="Ocircumflexhookabove">
          -106 callgsubr
          130 1841 13 callsubr
        </CharString>
        <CharString name="Ocircumflextilde">
          -106 callgsubr
          103 1661 3 callgsubr
        </CharString>
        <CharString name="Ocyrillic">
          -106 callgsubr
          endchar
        </CharString>
        <CharString name="Odblgrave">
          670 125 callsubr
          -212 40 callsubr
          -672 27 callsubr
          -254 -775 -98 callgsubr
        </CharString>
        <CharString name="Odieresis">
          -106 callgsubr
          -210 1483 -104 callsubr
          endchar
        </CharString>
        <CharString name="Odieresismacron">
          838 1806 rmoveto
          22 callsubr
          -18 callgsubr
          hvcurveto
          -547 135 106 callgsubr
          138 -268 rmoveto
          90 callgsubr
          -18 callgsubr
          hvcurveto
          -122 -971 -98 callgsubr
        </CharString>
        <CharString name="Odotaccent">
          -106 callgsubr
          1468 36 callsubr
        </CharString>
        <CharString name="Odotaccentmacron">
          76 callgsubr
          15 -1239 -98 callgsubr
        </CharString>
        <CharString name="Odotbelow">
          -106 callgsubr
          -618 36 callsubr
        </CharString>
        <CharString name="Ograve">
          461 65 callgsubr
          -448 -775 -98 callgsubr
        </CharString>
        <CharString name="Ohookabove">
          -106 callgsubr
          -182 1660 -55 callsubr
          endchar
        </CharString>
        <CharString name="Ohorn">
          633 -30 -82 callsubr
        </CharString>
        <CharString name="Ohornacute">
          442 1610 rmoveto
          207 85 callsubr
          -102 -1947 -82 callsubr
        </CharString>
        <CharString name="Ohorndotbelow">
          633 -30 -81 callsubr
          -618 36 callsubr
        </CharString>
        <CharString name="Ohorngrave">
          307 835 rmoveto
          288 118 160 208 208 118 -160 -288 214 callsubr
          -288 -118 -160 -208 -208 -118 160 288 vhcurveto
          862 228 rmoveto
          209 -55 155 -98 77 vhcurveto
          12 69 vlineto
          134 74 68 122 hvcurveto
          197 -168 -145 vlineto
          -73 -35 -27 -95 vhcurveto
          -152 -69 42 -141 hhcurveto
          -335 -201 -239 -398 hvcurveto
          -229 vlineto
          -398 201 -239 335 335 201 239 398 vhcurveto
          -678 1310 rmoveto
          -233 hlineto
          319 67 callsubr
          endchar
        </CharString>
        <CharString name="Ohornhookabove">
          451 1820 -55 callsubr
          182 -1973 -82 callsubr
        </CharString>
        <CharString name="Ohorntilde">
          784 1612 -66 callgsubr
          -151 -1642 -82 callsubr
        </CharString>
        <CharString name="Ohungarumlaut">
          -106 callgsubr
          45 1450 rmoveto
          192 hlineto
          301 307 rlineto
          -210 hlineto
          -673 -307 100 callsubr
          endchar
        </CharString>
        <CharString name="Oinvertedbreve">
          430 -11 callgsubr
          -143 -129 -187 vhcurveto
          31 -769 -98 callgsubr
        </CharString>
        <CharString name="Omacron">
          -106 callgsubr
          339 1525 -10 callsubr
        </CharString>
        <CharString name="Omacronacute">
          697 1865 157 callsubr
          -252 rmoveto
          133 -683 -133 vlineto
          16 -778 -98 callgsubr
        </CharString>
        <CharString name="Omacrongrave">
          -106 callgsubr
          341 1453 36 callgsubr
        </CharString>
        <CharString name="Omegagreek">
          633 1473 rmoveto
          -371 -212 -245 -429 -277 111 -210 206 -117 hvcurveto
          -15 -325 -180 525 232 vlineto
          -216 112 -97 168 274 vvcurveto
          330 127 167 252 252 127 -167 -330 -274 -97 -168 -216 -112 vhcurveto
          -232 525 180 -325 15 vlineto
          206 117 111 210 277 vvcurveto
          429 -212 245 -371 vhcurveto
          endchar
        </CharString>
        <CharString name="Omegatonosgreek">
          742 1473 rmoveto
          -312 -174 -239 -430 -294 88 -221 176 -106 hvcurveto
          -14 -266 -169 428 253 vlineto
          -167 107 -72 148 293 vvcurveto
          325 99 157 200 199 99 -157 -325 -292 -72 -149 -167 -107 vhcurveto
          -253 428 169 -266 14 vlineto
          176 106 88 222 293 vvcurveto
          430 -174 239 -311 vhcurveto
          -735 -381 rmoveto
          151 hlineto
          132 351 rlineto
          -201 hlineto
          endchar
        </CharString>
        <CharString name="Omicrongreek">
          -106 callgsubr
          endchar
        </CharString>
        <CharString name="Omicrontonosgreek">
          1200 607 rmoveto
          229 vlineto
          416 -152 221 -283 -283 -151 -221 -416 vhcurveto
          -229 vlineto
          -416 151 -221 283 283 152 221 416 vhcurveto
          -435 -447 rmoveto
          -160 -86 149 285 hvcurveto
          255 vlineto
          285 86 149 160 161 85 -149 -285 vhcurveto
          -255 vlineto
          -285 -85 -149 -161 vhcurveto
          -711 932 rmoveto
          150 hlineto
          133 351 rlineto
          -201 hlineto
          endchar
        </CharString>
        <CharString name="Oogonek">
          633 160 -36 callgsubr
        </CharString>
        <CharString name="Oogonekmacron">
          972 109 callgsubr
          339 -1525 -36 callgsubr
        </CharString>
        <CharString name="Oslash">
          959 608 -33 callsubr
        </CharString>
        <CharString name="Oslashacute">
          1006 125 callsubr
          -232 hlineto
          -294 67 callsubr
          272 -1002 -33 callsubr
        </CharString>
        <CharString name="Otilde">
          -106 callgsubr
          151 1452 -66 callgsubr
          endchar
        </CharString>
        <CharString name="Otildeacute">
          -106 callgsubr
          -82 1745 221 callsubr
          163 224 129 callsubr
          87 -574 -60 callgsubr
          endchar
        </CharString>
        <CharString name="Otildedieresis">
          -106 callgsubr
          144 1395 -60 callgsubr
          -348 334 rmoveto
          61 50 50 63 63 -50 50 -61 -62 -49 -50 -63 -63 49 -50 62 hvcurveto
          408 hmoveto
          62 49 50 63 63 -49 50 -62 -61 -50 -50 -63 -63 50 -50 61 hvcurveto
          endchar
        </CharString>
        <CharString name="Otildemacron">
          -106 callgsubr
          341 1787 rmoveto
          133 -682 -133 vlineto
          485 -392 -60 callgsubr
          endchar
        </CharString>
        <CharString name="P">
          -61 callgsubr
          endchar
        </CharString>
        <CharString name="Pacute">
          -61 callgsubr
          69 931 rmoveto
          207 52 callgsubr
        </CharString>
        <CharString name="Pdotaccent">
          -61 callgsubr
          192 949 -76 callsubr
          endchar
        </CharString>
        <CharString name="Pecyrillic">
          1148 97 callsubr
          -1030 -1443 209 1258 612 -1258 209 hlineto
          endchar
        </CharString>
        <CharString name="Phigreek">
          538 -84 rmoveto
          190 153 hlineto
          315 15 170 227 406 vvcurveto
          405 -170 228 -315 15 vhcurveto
          151 -190 -151 vlineto
          -315 -15 -170 -228 -405 vvcurveto
          -406 170 -227 315 -15 vhcurveto
          6 164 rmoveto
          -205 13 -103 159 312 vvcurveto
          311 103 160 205 14 vhcurveto
          178 -969 rmoveto
          969 vlineto
          205 -14 103 -161 -310 vvcurveto
          -312 -103 -159 -205 -13 vhcurveto
          endchar
        </CharString>
        <CharString name="Pigreek">
          150 hmoveto
          209 1258 548 -1258 209 -45 callgsubr
          -966 hlineto
          endchar
        </CharString>
        <CharString name="Psigreek">
          533 hmoveto
          200 323 hlineto
          322 14 130 151 388 vvcurveto
          567 -185 -552 vlineto
          -295 -68 -92 -206 -8 vhcurveto
          947 -186 -947 vlineto
          -206 8 -68 92 295 vvcurveto
          552 -185 -567 vlineto
          -388 129 -150 323 -15 vhcurveto
          endchar
        </CharString>
        <CharString name="Q">
          304 829 rmoveto
          294 121 160 208 208 121 -160 -294 vhcurveto
          -223 vlineto
          -136 -26 -107 -48 -77 vhcurveto
          -110 175 rlineto
          -211 hlineto
          182 -289 rlineto
          -13 -35 -39 -7 -42 hhcurveto
          -208 -121 160 294 hvcurveto
          866 -769 rmoveto
          -171 272 rlineto
          109 109 61 170 219 vvcurveto
          12 callsubr
          -229 vlineto
          -400 203 -237 333 80 73 14 26 64 vhcurveto
          109 -173 rlineto
          endchar
        </CharString>
        <CharString name="R">
          -89 callgsubr
          endchar
        </CharString>
        <CharString name="Racute">
          -89 callgsubr
          93 1047 66 callgsubr
          endchar
        </CharString>
        <CharString name="Rcaron">
          972 39 callgsubr
          189 hlineto
          -16 -1043 -27 callgsubr
        </CharString>
        <CharString name="Rcommaaccent">
          -89 callgsubr
          247 -1066 rmoveto
          140 16 callsubr
        </CharString>
        <CharString name="Rdblgrave">
          630 1917 46 callsubr
          -673 27 callsubr
          151 -1047 -27 callgsubr
        </CharString>
        <CharString name="Rdotaccent">
          -89 callgsubr
          216 1065 -72 callsubr
        </CharString>
        <CharString name="Rdotbelow">
          -89 callgsubr
          264 -1021 -76 callsubr
          endchar
        </CharString>
        <CharString name="Rdotbelowmacron">
          -89 callgsubr
          264 -1021 -76 callsubr
          291 2143 47 callsubr
          endchar
        </CharString>
        <CharString name="Rhogreek">
          -61 callgsubr
          endchar
        </CharString>
        <CharString name="Rinvertedbreve">
          391 1604 rmoveto
          110 1 83 76 118 hhcurveto
          119 83 -76 -110 1 hvcurveto
          155 hlineto
          187 -144 122 callgsubr
          436 -1041 -27 callgsubr
        </CharString>
        <CharString name="Rlinebelow">
          -89 callgsubr
          602 -963 47 callsubr
          endchar
        </CharString>
        <CharString name="S">
          126 390 -104 callgsubr
          endchar
        </CharString>
        <CharString name="Sacute">
          126 390 -104 callgsubr
          194 1220 183 callsubr
        </CharString>
        <CharString name="Sacutedotaccent">
          126 390 -104 callgsubr
          293 1220 -44 callgsubr
          -448 -246 -72 callsubr
        </CharString>
        <CharString name="Scaron">
          1023 98 callgsubr
          -613 -1216 -104 callgsubr
          endchar
        </CharString>
        <CharString name="Scarondotaccent">
          126 390 -104 callgsubr
          318 1489 rmoveto
          72 54 54 70 71 -54 53 -72 -73 -54 -53 -71 -70 54 -54 73 hvcurveto
          103 -301 rmoveto
          280 245 rlineto
          -211 hlineto
          -165 -146 rlineto
          -15 hlineto
          -164 146 rlineto
          -212 hlineto
          280 -245 rlineto
          endchar
        </CharString>
        <CharString name="Scedilla">
          623 844 rmoveto
          -179 43 -75 68 118 vvcurveto
          137 104 82 173 161 105 -83 -141 16 vhcurveto
          200 hlineto
          244 -11 -192 161 -281 hhcurveto
          -294 -190 -163 -252 -210 123 -130 266 -66 hvcurveto
          132 -31 rlineto
          187 -46 77 -69 -117 vvcurveto
          -145 -117 -93 -182 -184 -119 89 150 -16 vhcurveto
          -201 hlineto
          13 -239 168 -155 266 -23 -48 -115 rcurveline
          -43 callgsubr
          40 99 rlineto
          271 24 167 161 245 vvcurveto
          218 -119 123 -280 67 vhcurveto
          endchar
        </CharString>
        <CharString name="Scircumflex">
          126 390 -104 callgsubr
          412 1535 102 callsubr
        </CharString>
        <CharString name="Scommaaccent">
          126 390 -104 callgsubr
          301 -893 rmoveto
          140 16 callsubr
        </CharString>
        <CharString name="Sdotaccent">
          126 390 -104 callgsubr
          318 1238 -76 callsubr
          endchar
        </CharString>
        <CharString name="Sdotbelow">
          126 390 -104 callgsubr
          318 -835 134 callgsubr
        </CharString>
        <CharString name="Sdotbelowdotaccent">
          126 390 -104 callgsubr
          318 -848 -76 callsubr
          2086 vmoveto
          73 62 63 75 75 -62 63 -73 -74 -62 -63 -75 -75 62 -63 74 hvcurveto
          endchar
        </CharString>
        <CharString name="Shacyrillic">
          1193 hmoveto
          -45 callgsubr
          -178 -1265 -293 1265 -178 -1265 -293 1265 -178 184 callgsubr
        </CharString>
        <CharString name="Shchacyrillic">
          1096 -285 rmoveto
          170 463 -131 1265 -177 -1269 -279 1269 -177 -1269 -279 1269 -177 -1443 1050 hlineto
          endchar
        </CharString>
        <CharString name="Sigmagreek">
          131 hmoveto
          963 185 -702 14 hlineto
          333 521 rlineto
          29 vlineto
          -312 495 rlineto
          14 662 185 -925 -165 vlineto
          354 -550 -373 -586 rlineto
          endchar
        </CharString>
        <CharString name="Softsigncyrillic">
          377 742 rmoveto
          270 hlineto
          195 114 -104 -177 -178 -114 -103 -195 hvcurveto
          -270 hlineto
          323 -180 rmoveto
          280 188 184 276 276 -191 184 -284 hvcurveto
          -316 523 -209 -1443 hlineto
          endchar
        </CharString>
        <CharString name="T">
          -6 callgsubr
          endchar
        </CharString>
        <CharString name="Taugreek">
          -6 callgsubr
          endchar
        </CharString>
        <CharString name="Tbar">
          1166 1258 rmoveto
          185 -1066 -185 429 -464 -294 -159 294 -635 208 635 294 159 -294 464 vlineto
          endchar
        </CharString>
        <CharString name="Tcaron">
          1012 -70 callsubr
          10 -1606 rmoveto
          1258 429 185 -1066 -185 429 -1258 vlineto
          endchar
        </CharString>
        <CharString name="Tcedilla">
          -35 callsubr
          43 vlineto
          -59 -142 rlineto
          -94 58 vlineto
          4 callgsubr
          endchar
        </CharString>
        <CharString name="Tcircumflexbelow">
          -6 callgsubr
          -9 -164 -48 callgsubr
          endchar
        </CharString>
        <CharString name="Tcommaaccent">
          -6 callgsubr
          81 -503 rmoveto
          140 16 callsubr
        </CharString>
        <CharString name="Tdotaccent">
          -6 callgsubr
          104 1628 rmoveto
          43 callsubr
        </CharString>
        <CharString name="Tdotbelow">
          -6 callgsubr
          104 71 callsubr
          endchar
        </CharString>
        <CharString name="Tecyrillic">
          -6 callgsubr
          endchar
        </CharString>
        <CharString name="Thetagreek">
          633 160 rmoveto
          -217 -134 169 279 222 callgsubr
          279 134 169 217 217 134 -169 -279 214 callsubr
          -279 -134 -169 -217 vhcurveto
          550 447 rmoveto
          229 vlineto
          395 -209 242 -341 -341 -209 -242 -395 vhcurveto
          -229 vlineto
          -395 209 -242 341 341 209 242 395 vhcurveto
          -782 22 rmoveto
          464 182 -464 hlineto
          endchar
        </CharString>
        <CharString name="Thorn">
          183 212 callsubr
          216 326 313 vlineto
          263 173 177 255 255 -169 176 -260 hvcurveto
          -321 254 hlineto
          1 -444 rmoveto
          259 hlineto
          181 88 -81 -160 -161 -88 -83 -181 hvcurveto
          -259 hlineto
          endchar
        </CharString>
        <CharString name="Tlinebelow">
          -6 callgsubr
          443 -401 -25 callsubr
          endchar
        </CharString>
        <CharString name="Tsecyrillic">
          1265 185 rmoveto
          -153 1258 -209 -1258 -593 1258 -208 -1443 972 -285 191 hlineto
          endchar
        </CharString>
        <CharString name="Tshecyrillic">
          1008 hmoveto
          203 474 hlineto
          269 -128 153 -252 -156 -92 -56 -40 -43 vhcurveto
          -13 458 347 185 -874 -185 326 -1258 201 596 hlineto
          49 41 84 62 123 hhcurveto
          161 72 -99 -162 hvcurveto
          endchar
        </CharString>
        <CharString name="U">
          -103 callsubr
          endchar
        </CharString>
        <CharString name="Uacute">
          -103 callsubr
          -125 1449 rmoveto
          207 52 callgsubr
        </CharString>
        <CharString name="Ubreve">
          -103 callsubr
          -360 1759 rmoveto
          -186 144 -12 callgsubr
        </CharString>
        <CharString name="Ucaron">
          1010 -70 callsubr
          -401 -163 -62 callsubr
        </CharString>
        <CharString name="Ucircumflex">
          -103 callsubr
          92 1764 -65 callgsubr
          endchar
        </CharString>
        <CharString name="Ucircumflexbelow">
          -103 callsubr
          -115 -325 -48 callgsubr
          endchar
        </CharString>
        <CharString name="Ucyrillic">
          1208 1443 -78 callsubr
          endchar
        </CharString>
        <CharString name="Udblgrave">
          667 1917 46 callsubr
          -672 27 callsubr
          -235 -167 -62 callsubr
        </CharString>
        <CharString name="Udieresis">
          -103 callsubr
          -212 1482 -104 callsubr
          endchar
        </CharString>
        <CharString name="Udieresisacute">
          -103 callsubr
          -129 1715 rmoveto
          188 hlineto
          224 229 rlineto
          -217 hlineto
          -272 -540 64 callgsubr
        </CharString>
        <CharString name="Udieresisbelow">
          -103 callsubr
          -212 -610 -104 callsubr
          endchar
        </CharString>
        <CharString name="Udieresiscaron">
          -103 callsubr
          97 1705 rmoveto
          280 261 rlineto
          -208 hlineto
          -164 -158 rlineto
          -15 180 callsubr
          -105 -301 64 callgsubr
        </CharString>
        <CharString name="Udieresisgrave">
          428 28 callgsubr
          -436 -433 -62 callsubr
        </CharString>
        <CharString name="Udieresismacron">
          836 30 callsubr
          -104 -363 -62 callsubr
        </CharString>
        <CharString name="Udotbelow">
          -103 callsubr
          -2 -619 -76 callsubr
          endchar
        </CharString>
        <CharString name="Ugrave">
          459 65 callgsubr
          -429 -167 -62 callsubr
        </CharString>
        <CharString name="Uhookabove">
          -103 callsubr
          -184 1659 rmoveto
          13 25 43 9 43 hhcurveto
          64 41 -31 -45 -43 -42 -41 -60 -21 hvcurveto
          72 -92 rlineto
          105 39 67 82 94 vvcurveto
          112 -88 72 -131 -53 144 callgsubr
          endchar
        </CharString>
        <CharString name="Uhorn">
          627 -30 -70 callgsubr
        </CharString>
        <CharString name="Uhornacute">
          461 164 callgsubr
          -128 -1947 -70 callgsubr
        </CharString>
        <CharString name="Uhorndotbelow">
          62 callgsubr
          -6 428 -70 callgsubr
        </CharString>
        <CharString name="Uhorngrave">
          1134 1298 rmoveto
          45 hlineto
          129 75 70 120 hvcurveto
          212 -167 -171 vlineto
          -57 -33 -29 -63 vhcurveto
          -194 -937 hlineto
          -219 -109 -126 -190 -190 -110 126 219 vhcurveto
          937 -208 -940 vlineto
          -337 187 -196 321 321 186 196 337 vhcurveto
          -667 1414 rmoveto
          -233 hlineto
          319 -307 rlineto
          208 hlineto
          endchar
        </CharString>
        <CharString name="Uhornhookabove">
          451 1820 -55 callsubr
          176 -1973 -70 callgsubr
        </CharString>
        <CharString name="Uhorntilde">
          784 1612 -66 callgsubr
          -157 -1642 -70 callgsubr
        </CharString>
        <CharString name="Uhungarumlaut">
          -103 callsubr
          43 1449 rmoveto
          192 hlineto
          301 307 rlineto
          -211 hlineto
          -672 -307 100 callsubr
          endchar
        </CharString>
        <CharString name="Uinvertedbreve">
          428 -11 callgsubr
          -144 -129 -187 vhcurveto
          51 -161 -62 callsubr
        </CharString>
        <CharString name="Umacron">
          -103 callsubr
          337 1524 -10 callsubr
        </CharString>
        <CharString name="Umacrondieresis">
          -103 callsubr
          -206 1721 rmoveto
          65 52 53 67 67 -52 53 -65 -64 -53 -53 -67 -67 53 -53 64 hvcurveto
          -138 -269 106 callgsubr
          547 126 callsubr
        </CharString>
        <CharString name="Uogonek">
          856 -435 rmoveto
          43 41 6 11 29 hvcurveto
          131 vlineto
          -5 -19 -24 -2 -25 hhcurveto
          -75 -48 45 71 72 47 63 110 78 hvcurveto
          148 107 67 146 215 vvcurveto
          940 -208 -927 vlineto
          -225 -113 -130 -196 -196 -113 130 225 vhcurveto
          927 -208 -940 vlineto
          -329 191 -204 307 46 54 12 16 33 vhcurveto
          -15 vlineto
          -93 -62 -44 -69 -84 vvcurveto
          -119 102 -84 144 vhcurveto
          endchar
        </CharString>
        <CharString name="Upsilondieresisgreek">
          -90 callgsubr
          -106 1643 -104 callsubr
          endchar
        </CharString>
        <CharString name="Upsilongreek">
          -90 callgsubr
          endchar
        </CharString>
        <CharString name="Upsilontonosgreek">
          906 hmoveto
          571 vlineto
          341 872 rlineto
          -212 hlineto
          -221 -648 rlineto
          -13 hlineto
          -222 648 rlineto
          -211 hlineto
          342 -872 rlineto
          -571 vlineto
          -672 56 callgsubr
          -201 hlineto
          endchar
        </CharString>
        <CharString name="Uring">
          -103 callsubr
          -2 1396 rmoveto
          49 callsubr
          93 vmoveto
          147 callgsubr
          57 43 -42 -57 -57 -42 -43 -58 hvcurveto
          endchar
        </CharString>
        <CharString name="Ushortcyrillic">
          1208 1443 -78 callsubr
          -484 1526 77 callgsubr
          endchar
        </CharString>
        <CharString name="Utilde">
          -103 callsubr
          149 1451 rmoveto
          130 125 callgsubr
          -137 hlineto
          -94 -4 -35 -46 -57 -90 -35 152 -164 hhcurveto
          -132 -89 -105 -174 hvcurveto
          139 hlineto
          96 3 34 46 58 101 31 124 callgsubr
          endchar
        </CharString>
        <CharString name="Utildeacute">
          -103 callsubr
          -84 1744 221 callsubr
          163 224 129 callsubr
          87 -574 rmoveto
          128 92 97 152 hvcurveto
          -138 hlineto
          -77 -3 -35 -39 -53 -102 -13 130 -165 hhcurveto
          -129 -90 -95 -155 hvcurveto
          138 hlineto
          78 3 33 39 55 102 12 -130 165 hhcurveto
          endchar
        </CharString>
        <CharString name="Utildebelow">
          -103 callsubr
          -141 -475 78 callgsubr
          -103 -1 -26 -47 -59 -84 -44 153 12 callgsubr
        </CharString>
        <CharString name="V">
          18 callgsubr
          endchar
        </CharString>
        <CharString name="Vdotbelow">
          18 callgsubr
          -362 -1901 rmoveto
          43 callsubr
        </CharString>
        <CharString name="Vecyrillic">
          -95 callgsubr
          endchar
        </CharString>
        <CharString name="Vtilde">
          18 callgsubr
          -211 169 -66 callgsubr
          endchar
        </CharString>
        <CharString name="W">
          639 883 -94 callsubr
          endchar
        </CharString>
        <CharString name="Wacute">
          639 883 -94 callsubr
          -117 727 66 callgsubr
          endchar
        </CharString>
        <CharString name="Wcircumflex">
          639 883 -94 callsubr
          100 1042 rmoveto
          -188 hlineto
          -284 -315 rlineto
          199 hlineto
          172 197 rlineto
          15 hlineto
          171 -197 rlineto
          200 hlineto
          endchar
        </CharString>
        <CharString name="Wdieresis">
          639 883 -94 callsubr
          -204 760 -44 callsubr
        </CharString>
        <CharString name="Wdotaccent">
          639 883 -94 callsubr
          6 745 -72 callsubr
        </CharString>
        <CharString name="Wdotbelow">
          639 883 -94 callsubr
          6 -1341 rmoveto
          43 callsubr
        </CharString>
        <CharString name="Wgrave">
          461 65 callsubr
          -116 -727 -94 callsubr
          endchar
        </CharString>
        <CharString name="X">
          -59 callsubr
          endchar
        </CharString>
        <CharString name="Xacyrillic">
          -59 callsubr
          endchar
        </CharString>
        <CharString name="Xdieresis">
          -59 callsubr
          -85 918 -104 callsubr
          endchar
        </CharString>
        <CharString name="Xdotaccent">
          -59 callsubr
          125 903 rmoveto
          43 callsubr
        </CharString>
        <CharString name="Xigreek">
          155 hmoveto
          956 190 -956 hlineto
          81 447 rmoveto
          795 188 -795 hlineto
          -81 428 rmoveto
          956 190 -956 hlineto
          endchar
        </CharString>
        <CharString name="Y">
          -90 callgsubr
          endchar
        </CharString>
        <CharString name="Yacute">
          -90 callgsubr
          -22 1610 rmoveto
          207 52 callgsubr
        </CharString>
        <CharString name="Ycircumflex">
          -90 callgsubr
          198 1925 -65 callgsubr
          endchar
        </CharString>
        <CharString name="Ydieresis">
          -90 callgsubr
          -106 1643 -104 callsubr
          endchar
        </CharString>
        <CharString name="Ydotaccent">
          -90 callgsubr
          104 1628 rmoveto
          43 callsubr
        </CharString>
        <CharString name="Ydotbelow">
          -90 callgsubr
          104 71 callsubr
          endchar
        </CharString>
        <CharString name="Yericyrillic">
          280 742 -66 callsubr
        </CharString>
        <CharString name="Ygrave">
          464 125 callsubr
          -233 hlineto
          320 67 callsubr
          -21 -1610 rmoveto
          579 vlineto
          476 864 149 callsubr
          -343 -648 rlineto
          -14 hlineto
          -343 648 149 callsubr
          476 -864 rlineto
          -579 vlineto
          endchar
        </CharString>
        <CharString name="Yhookabove">
          -90 callgsubr
          -78 54 callsubr
        </CharString>
        <CharString name="Yicyrillic">
          1031 hmoveto
          -90 callsubr
          188 1643 -104 callsubr
          endchar
        </CharString>
        <CharString name="Ymacron">
          -90 callgsubr
          443 109 callgsubr
          endchar
        </CharString>
        <CharString name="Ytilde">
          -90 callgsubr
          255 42 callsubr
        </CharString>
        <CharString name="Z">
          136 hmoveto
          -55 callgsubr
          endchar
        </CharString>
        <CharString name="Zacute">
          136 hmoveto
          -55 callgsubr
          378 1463 -44 callgsubr
          endchar
        </CharString>
        <CharString name="Zcaron">
          1016 -70 callsubr
          -595 -1606 rmoveto
          -55 callgsubr
          endchar
        </CharString>
        <CharString name="Zcircumflex">
          136 hmoveto
          -55 callgsubr
          595 1778 -65 callgsubr
          endchar
        </CharString>
        <CharString name="Zdotaccent">
          136 hmoveto
          -55 callgsubr
          501 1481 -72 callsubr
        </CharString>
        <CharString name="Zdotbelow">
          136 hmoveto
          -55 callgsubr
          497 -605 rmoveto
          43 callsubr
        </CharString>
        <CharString name="Zecyrillic">
          431 650 -62 callgsubr
          endchar
        </CharString>
        <CharString name="Zetagreek">
          136 hmoveto
          -55 callgsubr
          endchar
        </CharString>
        <CharString name="Zhecyrillic">
          -32 callsubr
          endchar
        </CharString>
        <CharString name="Zlinebelow">
          136 hmoveto
          -55 callgsubr
          836 -548 -25 callsubr
          endchar
        </CharString>
        <CharString name="a">
          -107 callgsubr
          endchar
        </CharString>
        <CharString name="aacute">
          724 9 callgsubr
          327 -790 -100 callgsubr
        </CharString>
        <CharString name="abreve">
          -107 callgsubr
          47 1253 rmoveto
          -126 -72 32 callgsubr
          -71 -81 -128 vhcurveto
          endchar
        </CharString>
        <CharString name="abreveacute">
          -107 callgsubr
          -48 1509 rmoveto
          165 hlineto
          233 316 129 callsubr
          -93 -572 141 callgsubr
          -196 139 -140 227 138 callgsubr
          endchar
        </CharString>
        <CharString name="abrevedotbelow">
          -107 callgsubr
          57 1253 141 callgsubr
          -196 139 -140 227 138 callgsubr
          -25 -1860 -72 callsubr
        </CharString>
        <CharString name="abrevegrave">
          265 1595 rmoveto
          -196 139 -140 227 87 callgsubr
          -168 hlineto
          -112 -72 -81 -126 -128 -71 81 112 -1 vhcurveto
          106 379 rmoveto
          -200 hlineto
          233 -316 rlineto
          165 hlineto
          111 -1152 -100 callgsubr
        </CharString>
        <CharString name="abrevehookabove">
          -107 callgsubr
          57 1252 rmoveto
          -127 -72 81 113 hvcurveto
          -167 hlineto
          -197 139 -140 227 42 callgsubr
          197 215 callgsubr
          -113 97 callgsubr
          -188 454 155 callgsubr
          -47 59 callsubr
          113 -88 77 -125 -56 -56 -12 -16 -35 vhcurveto
          endchar
        </CharString>
        <CharString name="abrevetilde">
          -107 callgsubr
          57 1253 141 callgsubr
          -197 139 -140 227 42 callgsubr
          197 215 callgsubr
          -112 97 callgsubr
          -140 443 138 callsubr
          -103 118 callsubr
          153 91 callsubr
          -91 -116 169 callsubr
          49 58 hhcurveto
          endchar
        </CharString>
        <CharString name="acaron">
          744 -7 callgsubr
          328 -790 -100 callgsubr
        </CharString>
        <CharString name="acircumflex">
          -107 callgsubr
          -56 1476 -52 callsubr
        </CharString>
        <CharString name="acircumflexacute">
          -107 callgsubr
          262 1506 rmoveto
          180 175 callsubr
          -210 hlineto
          -520 -346 -52 callsubr
        </CharString>
        <CharString name="acircumflexdotbelow">
          -107 callgsubr
          -56 1476 -65 callsubr
          -138 -2070 73 callsubr
        </CharString>
        <CharString name="acircumflexgrave">
          -107 callgsubr
          532 1506 rmoveto
          -203 316 rlineto
          -209 175 callgsubr
          -408 -30 -52 callsubr
        </CharString>
        <CharString name="acircumflexhookabove">
          -107 callgsubr
          -56 1476 -65 callsubr
          20 227 rmoveto
          15 31 41 9 39 hhcurveto
          62 42 -33 -48 -43 -42 -42 -60 -21 hvcurveto
          74 -95 rlineto
          109 139 callsubr
        </CharString>
        <CharString name="acircumflextilde">
          -107 callgsubr
          -84 1714 rmoveto
          87 42 -151 160 hhcurveto
          143 87 110 182 hvcurveto
          -151 hlineto
          -105 -26 -43 -61 vhcurveto
          -87 -42 150 -160 hhcurveto
          -143 84 callgsubr
          60 hhcurveto
          28 -238 -52 callsubr
        </CharString>
        <CharString name="acute">
          601 -34 callgsubr
          endchar
        </CharString>
        <CharString name="acutecmb">
          -107 93 -49 callgsubr
          endchar
        </CharString>
        <CharString name="acutecmb.short">
          356 164 callgsubr
          endchar
        </CharString>
        <CharString name="acutedotaccentcmb">
          443 1332 -79 callgsubr
          421 -39 rmoveto
          269 -40 callgsubr
          -239 -343 rlineto
          endchar
        </CharString>
        <CharString name="acutedotaccentcmb.short">
          608 108 callgsubr
          -447 -246 -76 callsubr
          endchar
        </CharString>
        <CharString name="acyrillic">
          -107 callgsubr
          endchar
        </CharString>
        <CharString name="adblgrave">
          717 1639 49 callgsubr
          186 hlineto
          310 -790 -100 callgsubr
        </CharString>
        <CharString name="adieresis">
          -107 callgsubr
          -147 1147 146 callgsubr
          421 hmoveto
          -50 callsubr
          endchar
        </CharString>
        <CharString name="adieresismacron">
          841 1559 rmoveto
          22 callgsubr
          -87 callgsubr
          hvcurveto
          -421 hmoveto
          106 callsubr
          -87 callgsubr
          hvcurveto
          549 168 47 callsubr
          554 -1221 -100 callgsubr
        </CharString>
        <CharString name="adotaccent">
          -107 callgsubr
          57 1146 45 callgsubr
          endchar
        </CharString>
        <CharString name="adotbelow">
          -107 callgsubr
          32 -607 -72 callsubr
        </CharString>
        <CharString name="adotmacron">
          -107 callgsubr
          395 1579 47 callsubr
          339 -445 -76 callsubr
          endchar
        </CharString>
        <CharString name="ae">
          1214 307 rmoveto
          -153 hlineto
          -84 callgsubr
          -170 339 rmoveto
          -328 hlineto
          112 callsubr
          -682 -492 rmoveto
          -90 -45 54 101 97 58 63 102 9 hvcurveto
          157 15 rlineto
          -102 vlineto
          -140 -75 -97 -107 vhcurveto
          endchar
        </CharString>
        <CharString name="aeacute">
          733 9 callgsubr
          16 -803 rmoveto
          -102 vlineto
          -140 -75 -97 -107 -90 -45 54 101 97 58 63 102 9 vhcurveto
          329 168 rmoveto
          112 callsubr
          17 -339 rmoveto
          -84 callgsubr
          endchar
        </CharString>
        <CharString name="aemacron">
          1214 307 rmoveto
          -153 hlineto
          -84 callgsubr
          -170 339 rmoveto
          -328 hlineto
          112 callsubr
          -682 -492 rmoveto
          -90 -45 54 101 97 58 63 102 9 hvcurveto
          157 15 rlineto
          -102 vlineto
          -140 -75 -97 -107 vhcurveto
          616 1212 -9 callgsubr
        </CharString>
        <CharString name="agrave">
          -107 callgsubr
          225 1147 113 callsubr
          endchar
        </CharString>
        <CharString name="ahookabove">
          -107 callgsubr
          -116 1352 rmoveto
          15 30 41 9 39 hhcurveto
          63 41 -32 -48 59 callsubr
          114 -87 202 callgsubr
          -16 -35 vhcurveto
          endchar
        </CharString>
        <CharString name="ainvertedbreve">
          997 1259 rmoveto
          197 -140 139 -226 -227 -139 -139 -197 vhcurveto
          167 hlineto
          112 72 81 127 127 72 -81 -112 vhcurveto
          16 -753 -100 callgsubr
        </CharString>
        <CharString name="alphagreek">
          318 622 -20 callsubr
        </CharString>
        <CharString name="alphatonosgreek">
          492 1286 rmoveto
          176 87 callsubr
          -255 -1018 -20 callsubr
        </CharString>
        <CharString name="amacron">
          -107 callgsubr
          395 1217 -9 callgsubr
        </CharString>
        <CharString name="ampersand">
          1003 hmoveto
          224 hlineto
          -228 277 68 112 38 148 5 170 rlinecurve
          24 -165 -14 vlineto
          -4 -124 -17 -96 -33 -76 -291 362 rcurveline
          190 124 74 108 143 vvcurveto
          186 -135 129 -193 -197 -137 -129 -186 -106 52 -113 110 -131 vhcurveto
          -49 -33 rlineto
          -172 -111 -84 -132 -158 vvcurveto
          -235 179 -165 254 153 137 56 109 111 vhcurveto
          -473 521 rmoveto
          37 24 339 -420 rlineto
          -80 -69 -103 -43 -119 hhcurveto
          -156 -105 99 146 110 56 89 120 75 hvcurveto
          113 655 rmoveto
          92 69 -68 -93 -99 -48 -69 -141 -93 hvcurveto
          -95 110 -38 76 75 vvcurveto
          93 69 68 92 vhcurveto
          endchar
        </CharString>
        <CharString name="anoteleia">
          634 774 rmoveto
          92 65 67 91 91 -65 67 -92 -91 -67 -67 -91 -91 67 -67 91 hvcurveto
          endchar
        </CharString>
        <CharString name="aogonek">
          574 150 rmoveto
          -128 -80 65 105 106 76 60 145 8 hvcurveto
          259 13 rlineto
          -115 vlineto
          -140 -116 -102 -156 vhcurveto
          280 -150 rmoveto
          -110 -65 -55 -78 -96 vvcurveto
          -119 95 -82 139 45 53 9 12 24 vhcurveto
          136 vlineto
          -6 -14 -26 -3 -28 hhcurveto
          -70 -43 37 59 74 65 75 104 43 hvcurveto
          12 4 rlineto
          744 vlineto
          230 -150 131 -263 -234 -171 -121 -181 -20 vhcurveto
          196 hlineto
          87 26 83 50 116 hhcurveto
          140 78 -71 -125 hvcurveto
          -95 vlineto
          -286 -15 rlineto
          -254 -15 -140 -115 -194 vvcurveto
          -197 138 -131 208 154 117 64 113 52 vhcurveto
          19 hlineto
          endchar
        </CharString>
        <CharString name="approxequal">
          460 755 rmoveto
          165 callsubr
          130 204 hvcurveto
          -158 hlineto
          -92 -4 -33 -62 -80 hhcurveto
          -44 -40 30 56 -54 hvcurveto
          67 -69 -64 36 -79 hhcurveto
          -173 -96 -130 -204 1 hvcurveto
          157 hlineto
          94 6 33 62 77 hhcurveto
          -455 vmoveto
          165 callsubr
          131 204 hvcurveto
          -158 hlineto
          -93 -4 -33 -62 -80 hhcurveto
          -44 -40 29 57 -54 hvcurveto
          67 -69 -64 36 -79 hhcurveto
          -172 -97 -131 -202 1 hvcurveto
          157 hlineto
          93 6 33 62 77 hhcurveto
          endchar
        </CharString>
        <CharString name="aring">
          -107 callgsubr
          57 1217 rmoveto
          -65 -49 50 66 66 49 50 65 64 49 -50 -66 -66 -49 -50 -64 hvcurveto
          -118 vmoveto
          126 103 105 129 129 -103 105 -126 -127 112 callgsubr
          -105 127 hvcurveto
          endchar
        </CharString>
        <CharString name="aringacute">
          713 1730 rmoveto
          194 241 rlineto
          -195 hlineto
          -163 -241 rlineto
          82 163 callsubr
          -117 -90 -88 -115 -116 90 -88 117 hvcurveto
          102 vmoveto
          -58 -44 44 58 57 44 44 58 57 44 -44 -57 -58 -44 -44 -57 hvcurveto
          215 -824 -100 callgsubr
        </CharString>
        <CharString name="aringbelow">
          -107 callgsubr
          32 -613 rmoveto
          -64 -49 51 65 66 49 51 64 65 49 -51 -66 -65 -49 -51 -65 hvcurveto
          -117 vmoveto
          126 104 104 129 129 -104 105 -126 -126 112 callgsubr
          -104 126 hvcurveto
          endchar
        </CharString>
        <CharString name="arrowleftright">
          817 234 rmoveto
          477 480 -477 480 -115 -114 144 -134 190 -150 rlineto
          -10 vlineto
          -224 9 rlineto
          -358 hlineto
          -224 -9 rlineto
          10 vlineto
          190 150 144 134 -115 114 -477 -480 477 -480 115 114 -144 135 -190 150 rlineto
          9 vlineto
          224 -9 rlineto
          358 hlineto
          224 9 rlineto
          -9 vlineto
          -190 -150 -144 -135 rlineto
          endchar
        </CharString>
        <CharString name="asciicircum">
          624 1235 rmoveto
          18 hlineto
          227 -554 rlineto
          203 hlineto
          -335 762 rlineto
          -208 hlineto
          -335 -762 rlineto
          203 hlineto
          endchar
        </CharString>
        <CharString name="asciitilde">
          422 921 rmoveto
          -175 -115 -136 -208 -8 0 -14 1 -8 hvcurveto
          178 hlineto
          119 7 43 59 80 hhcurveto
          44 38 -23 -70 66 hvcurveto
          -91 89 72 -35 97 hhcurveto
          174 113 136 208 7 0 14 -1 9 hvcurveto
          -176 hlineto
          -117 -7 -42 -62 -76 hhcurveto
          -47 -40 24 69 -66 hvcurveto
          92 -90 -72 35 -95 hhcurveto
          endchar
        </CharString>
        <CharString name="asterisk">
          1180 859 rmoveto
          -82 147 -397 -245 14 465 rlineto
          -164 hlineto
          14 -465 -397 246 -82 -148 407 -218 -407 -219 82 -148 396 245 -13 -464 rlineto
          164 hlineto
          -13 465 396 -246 82 148 -406 218 rlineto
          endchar
        </CharString>
        <CharString name="at">
          669 -200 rmoveto
          93 99 16 22 48 hvcurveto
          126 vlineto
          -20 -42 -93 -15 -90 hhcurveto
          -305 -135 197 446 hvcurveto
          143 vlineto
          440 124 191 279 263 131 -172 -352 vhcurveto
          -273 vlineto
          -94 -33 -35 -89 vhcurveto
          -156 421 hlineto
          77 -40 49 -63 -63 -40 -49 -77 vhcurveto
          -416 vlineto
          -78 48 -49 76 vhcurveto
          263 hlineto
          144 84 95 163 hvcurveto
          292 vlineto
          409 -185 219 -339 -355 -185 -256 -499 vhcurveto
          -171 vlineto
          -498 190 -252 371 vhcurveto
          endchar
        </CharString>
        <CharString name="atilde">
          -107 callgsubr
          -83 1270 138 callsubr
          -102 118 callsubr
          33 callgsubr
          -91 -116 169 callsubr
          49 58 hhcurveto
          endchar
        </CharString>
        <CharString name="austral">
          1236 hmoveto
          -133 392 rlineto
          98 128 -139 hlineto
          -58 171 rlineto
          197 128 -240 hlineto
          -208 624 rlineto
          -240 hlineto
          -209 -624 rlineto
          -240 -128 198 hlineto
          -58 -171 rlineto
          -140 -128 99 hlineto
          -133 -392 rlineto
          212 hlineto
          126 392 rlineto
          530 hlineto
          125 -392 rlineto
          -617 520 rmoveto
          58 181 rlineto
          337 hlineto
          59 -181 rlineto
          -221 689 rmoveto
          130 -400 rlineto
          -272 hlineto
          129 400 rlineto
          endchar
        </CharString>
        <CharString name="b">
          -71 callgsubr
          endchar
        </CharString>
        <CharString name="backslash">
          1081 -160 rmoveto
          -695 1763 rlineto
          -201 hlineto
          699 -1763 rlineto
          endchar
        </CharString>
        <CharString name="baht">
          625 666 rmoveto
          193 -5 105 -87 -157 vvcurveto
          -162 -104 -87 -194 -2 vhcurveto
          -299 hmoveto
          500 186 -500 vlineto
          -186 1111 rmoveto
          186 -449 -186 hlineto
          299 448 rmoveto
          150 -7 90 -82 -135 vvcurveto
          -131 -86 -78 -154 -13 vhcurveto
          187 -59 rmoveto
          147 25 108 130 160 vvcurveto
          221 -159 136 -262 vhcurveto
          -21 151 -113 -151 -382 -1443 382 -145 113 145 35 hlineto
          298 178 153 252 193 -134 141 -190 17 hvcurveto
          endchar
        </CharString>
        <CharString name="bar">
          728 -483 rmoveto
          2086 -190 -2086 vlineto
          endchar
        </CharString>
        <CharString name="bdotaccent">
          -71 callgsubr
          104 1135 45 callgsubr
          endchar
        </CharString>
        <CharString name="bdotbelow">
          -71 callgsubr
          -18 -618 rmoveto
          43 callsubr
        </CharString>
        <CharString name="becyrillic">
          644 152 rmoveto
          -195 -112 137 240 227 116 138 191 195 112 -133 -232 -240 -112 -137 -195 hvcurveto
          -342 679 rmoveto
          31 318 116 132 264 7 rrcurveto
          33 85 5 2 33 hvcurveto
          89 5 74 16 64 27 rrcurveto
          170 vlineto
          -45 -17 -94 -18 -98 -9 -59 -5 -68 -4 -27 -1 rrcurveto
          -400 -15 -169 -239 -550 vvcurveto
          -33 vlineto
          -425 175 -218 339 320 192 208 348 328 -180 201 -291 -171 -130 -87 -146 -63 vhcurveto
          endchar
        </CharString>
        <CharString name="betagreek">
          175 -366 rmoveto
          194 539 19 hlineto
          -126 51 113 -65 175 hhcurveto
          251 162 186 263 212 -110 134 -210 44 hvcurveto
          15 vlineto
          133 44 83 121 146 vvcurveto
          237 -155 151 -260 -281 -165 -172 -292 vhcurveto
          502 -914 rmoveto
          -189 -121 103 215 hvcurveto
          578 vlineto
          205 88 106 166 143 83 -91 -140 -146 -92 -87 -155 vhcurveto
          -89 -171 102 hlineto
          207 122 -106 -182 -169 -104 -115 -161 hvcurveto
          endchar
        </CharString>
        <CharString name="bitcoin">
          351 195 rmoveto
          465 261 vlineto
          217 108 -78 -149 -148 -101 -90 -199 hvcurveto
          -286 1048 rmoveto
          264 hlineto
          167 91 -74 -132 -138 -107 -79 -190 hvcurveto
          -225 hlineto
          462 -55 rmoveto
          151 25 114 133 152 vvcurveto
          195 -125 122 -224 18 vhcurveto
          202 -118 -200 -154 200 -118 -200 -186 -1386 186 -198 118 198 154 -198 118 198 vlineto
          271 14 149 149 227 vvcurveto
          183 -137 133 -199 18 vhcurveto
          endchar
        </CharString>
        <CharString name="blinebelow">
          -71 callgsubr
          321 -561 -25 callsubr
          endchar
        </CharString>
        <CharString name="braceleft">
          1031 -160 rmoveto
          160 -105 vlineto
          -147 -29 35 171 hvcurveto
          270 vlineto
          139 -103 92 -196 6 vhcurveto
          17 vlineto
          196 6 103 92 139 vvcurveto
          270 vlineto
          171 29 35 147 vhcurveto
          105 160 -143 hlineto
          -257 -82 -82 -255 hvcurveto
          -224 vlineto
          -155 -84 -81 -230 19 vhcurveto
          -207 vlineto
          230 19 84 -81 -156 vvcurveto
          -223 vlineto
          -255 82 -82 257 vhcurveto
          endchar
        </CharString>
        <CharString name="braceright">
          378 -160 rmoveto
          257 82 82 255 hvcurveto
          223 vlineto
          156 84 81 230 -19 vhcurveto
          207 vlineto
          -230 -19 -84 81 155 vvcurveto
          224 vlineto
          255 -82 82 -257 vhcurveto
          -143 -160 105 hlineto
          147 29 -35 -171 hvcurveto
          -270 vlineto
          -139 103 -92 196 -6 vhcurveto
          -17 vlineto
          -196 -6 -103 -92 -139 vvcurveto
          -270 vlineto
          -171 -29 -35 -147 vhcurveto
          -105 -160 hlineto
          endchar
        </CharString>
        <CharString name="bracketleft">
          360 1603 rmoveto
          -1763 560 160 -363 -45 callgsubr
          360 160 vlineto
          endchar
        </CharString>
        <CharString name="bracketright">
          364 1603 rmoveto
          -160 359 -1443 -363 -160 560 1763 vlineto
          endchar
        </CharString>
        <CharString name="breve">
          633 1387 rmoveto
          -127 -71 81 113 -45 callsubr
          -113 97 callgsubr
          endchar
        </CharString>
        <CharString name="breveacutecmb">
          528 1658 rmoveto
          166 175 callsubr
          -199 hlineto
          -94 -572 rmoveto
          -127 -71 32 callgsubr
          -72 -81 -127 vhcurveto
          endchar
        </CharString>
        <CharString name="breveacutecmb.short">
          517 1876 rmoveto
          172 hlineto
          194 229 rlineto
          -201 hlineto
          -406 -236 rmoveto
          52 callsubr
          -154 hlineto
          75 callgsubr
          endchar
        </CharString>
        <CharString name="brevebelowcmb">
          633 -333 rmoveto
          -127 -71 81 113 -45 callsubr
          -113 97 callgsubr
          endchar
        </CharString>
        <CharString name="brevecmb">
          633 1387 rmoveto
          -127 -71 81 113 -45 callsubr
          -113 97 callgsubr
          endchar
        </CharString>
        <CharString name="brevecmb.short">
          276 1920 rmoveto
          -186 143 -12 callgsubr
        </CharString>
        <CharString name="brevecyrillic">
          291 -19 callsubr
          endchar
        </CharString>
        <CharString name="brevecyrillic.short">
          62 callsubr
          endchar
        </CharString>
        <CharString name="brevegravecmb">
          267 1595 rmoveto
          -196 -6 callsubr
          196 vhcurveto
          -168 hlineto
          -112 -71 -81 -127 -127 -72 81 112 vhcurveto
          105 379 rmoveto
          -199 175 callgsubr
          166 hlineto
          endchar
        </CharString>
        <CharString name="brevegravecmb.short">
          139 callgsubr
          -301 -7 rmoveto
          52 callsubr
          -154 hlineto
          75 callgsubr
          endchar
        </CharString>
        <CharString name="brevehookabovecmb">
          633 1401 rmoveto
          -127 -71 81 113 -45 callsubr
          -113 97 callgsubr
          -188 454 155 callgsubr
          -47 -44 -41 -42 -61 57 callsubr
          66 80 98 vvcurveto
          113 -88 77 162 callgsubr
        </CharString>
        <CharString name="brevehookabovecmb.short">
          463 2011 rmoveto
          158 callgsubr
          82 -77 rlineto
          154 callgsubr
          -182 -264 rmoveto
          153 callsubr
          -145 hlineto
          179 callsubr
          endchar
        </CharString>
        <CharString name="brevetildecmb">
          633 1402 rmoveto
          -127 -71 81 112 -45 callsubr
          -112 97 callgsubr
          -139 443 -37 callgsubr
        </CharString>
        <CharString name="brevetildecmb.short">
          284 1825 76 callsubr
          346 52 rmoveto
          118 87 89 135 hvcurveto
          -132 hlineto
          80 callgsubr
          endchar
        </CharString>
        <CharString name="brokenbar">
          728 782 rmoveto
          821 -190 -821 vlineto
          190 -1265 rmoveto
          820 -190 -820 vlineto
          endchar
        </CharString>
        <CharString name="bullet">
          633 209 rmoveto
          236 193 194 237 237 -193 195 -236 -236 -193 -195 -237 -237 193 -194 236 hvcurveto
          endchar
        </CharString>
        <CharString name="c">
          1099 739 1 callgsubr
        </CharString>
        <CharString name="cacute">
          733 -34 callgsubr
          571 -2 callsubr
        </CharString>
        <CharString name="caron">
          746 1296 -57 callgsubr
          endchar
        </CharString>
        <CharString name="caroncmb">
          746 1296 -57 callgsubr
          endchar
        </CharString>
        <CharString name="caroncmb.short">
          1012 -70 callsubr
          endchar
        </CharString>
        <CharString name="carondotaccentcmb">
          633 1696 rmoveto
          -99 callgsubr
          113 -413 -57 callgsubr
          endchar
        </CharString>
        <CharString name="carondotaccentcmb.short">
          633 1879 rmoveto
          72 54 54 70 71 -54 53 -72 -72 -54 -53 -71 -70 54 -54 72 hvcurveto
          103 -301 rmoveto
          280 245 rlineto
          -211 hlineto
          -164 -146 rlineto
          -16 hlineto
          -164 146 rlineto
          -211 hlineto
          280 -245 rlineto
          endchar
        </CharString>
        <CharString name="ccaron">
          752 -7 callgsubr
          573 -2 callsubr
        </CharString>
        <CharString name="ccedilla">
          -30 callgsubr
        </CharString>
        <CharString name="ccedillaacute">
          1002 164 callsubr
          -357 -704 -23 callgsubr
          -288 144 -177 252 -30 vhcurveto
          -52 -126 rlineto
          -42 callgsubr
          44 108 219 20 141 133 25 213 rlinecurve
          -198 hlineto
          -123 -20 -96 -73 -134 hhcurveto
          -177 -98 124 224 hvcurveto
          endchar
        </CharString>
        <CharString name="ccircumflex">
          1099 739 -85 callgsubr
          -375 886 -52 callsubr
        </CharString>
        <CharString name="cdotaccent">
          1099 739 -85 callgsubr
          -262 562 -72 callsubr
        </CharString>
        <CharString name="cedi">
          598 164 rmoveto
          -220 34 -122 208 316 vvcurveto
          314 123 210 219 33 vhcurveto
          425 -828 rmoveto
          -29 -157 -108 -109 -164 -22 rrcurveto
          1116 vlineto
          158 -22 113 -121 30 -166 rrcurveto
          204 hlineto
          -26 273 -199 204 -280 26 rrcurveto
          121 -124 -121 vlineto
          -352 -29 -203 -282 -441 vvcurveto
          -440 203 -281 352 -30 vhcurveto
          -143 124 143 vlineto
          286 22 192 190 28 269 rrcurveto
          endchar
        </CharString>
        <CharString name="cedilla">
          473 -236 rmoveto
          58 hlineto
          4 callgsubr
          -143 hlineto
          -59 -142 rlineto
          endchar
        </CharString>
        <CharString name="cedillacmb">
          513 -236 rmoveto
          58 hlineto
          4 callgsubr
          -143 hlineto
          -59 -142 rlineto
          endchar
        </CharString>
        <CharString name="cent">
          884 488 rmoveto
          -80 -13 -83 -71 -134 hhcurveto
          -166 -94 111 187 hvcurveto
          166 vlineto
          185 99 112 161 127 84 -75 -92 12 vhcurveto
          196 hlineto
          -9 177 -124 133 -195 31 rrcurveto
          175 -191 -176 vlineto
          -212 -37 -152 -156 -271 vvcurveto
          -178 vlineto
          -281 143 -156 221 -33 vhcurveto
          -176 191 177 vlineto
          187 32 145 122 4 174 rrcurveto
          endchar
        </CharString>
        <CharString name="checyrillic">
          1062 1090 rmoveto
          -201 -422 hlineto
          -43 callsubr
          201 hlineto
          endchar
        </CharString>
        <CharString name="chigreek">
          138 -366 rmoveto
          207 hlineto
          281 533 rlineto
          14 hlineto
          190 -370 rlineto
          -124 63 56 -49 126 hhcurveto
          38 42 5 8 27 hvcurveto
          161 vlineto
          -5 -20 -16 -2 -18 hhcurveto
          -63 -39 33 89 -46 hvcurveto
          -229 443 409 734 rlineto
          -208 hlineto
          -285 -541 rlineto
          -15 hlineto
          -186 365 rlineto
          139 -69 -54 49 -131 hhcurveto
          -36 -37 -4 -9 -28 hvcurveto
          -160 vlineto
          4 18 22 3 14 hhcurveto
          65 31 -31 -89 46 hvcurveto
          235 -454 rlineto
          endchar
        </CharString>
        <CharString name="circumflex">
          520 1625 -88 callgsubr
          endchar
        </CharString>
        <CharString name="circumflexacutecmb">
          838 1655 rmoveto
          180 175 callsubr
          -209 hlineto
          -521 -346 -88 callgsubr
          endchar
        </CharString>
        <CharString name="circumflexacutecmb.short">
          844 1853 rmoveto
          187 hlineto
          228 252 rlineto
          -210 hlineto
          -313 -284 -53 callgsubr
          endchar
        </CharString>
        <CharString name="circumflexbelowcmb">
          520 -164 -48 callgsubr
          endchar
        </CharString>
        <CharString name="circumflexcmb">
          520 1625 -88 callgsubr
          endchar
        </CharString>
        <CharString name="circumflexcmb.short">
          727 1925 -65 callgsubr
          endchar
        </CharString>
        <CharString name="circumflexgravecmb">
          1108 1655 rmoveto
          -202 316 rlineto
          -210 175 callgsubr
          -408 -30 -88 callgsubr
          endchar
        </CharString>
        <CharString name="circumflexgravecmb.short">
          1093 1853 rmoveto
          -205 252 rlineto
          -209 hlineto
          227 -252 rlineto
          -170 -32 -53 callgsubr
          endchar
        </CharString>
        <CharString name="circumflexhookabovecmb">
          520 1625 -88 callgsubr
          21 227 155 callgsubr
          -48 -43 -41 -42 -61 57 callsubr
          66 80 98 vvcurveto
          113 -88 202 callgsubr
          -15 -35 vhcurveto
          endchar
        </CharString>
        <CharString name="circumflexhookabovecmb.short">
          763 2001 13 callsubr
        </CharString>
        <CharString name="circumflextildecmb">
          493 1863 -2 callgsubr
        </CharString>
        <CharString name="circumflextildecmb.short">
          736 1821 3 callgsubr
        </CharString>
        <CharString name="colon">
          633 -10 rmoveto
          106 86 89 107 108 -86 88 -106 -105 -87 -88 -108 -107 87 -89 105 hvcurveto
          766 vmoveto
          106 86 88 107 108 -86 88 -106 -105 -87 -88 -108 -107 87 -88 105 hvcurveto
          endchar
        </CharString>
        <CharString name="coloncurrency">
          677 -173 rmoveto
          53 161 rlineto
          -10 45 49 -4 50 hhcurveto
          102 102 11 18 79 hvcurveto
          189 vlineto
          -17 -60 -99 -12 -102 hhcurveto
          -39 -37 3 6 -35 hvcurveto
          463 1422 rlineto
          -125 hlineto
          -46 -142 -53 7 -56 7 -68 1 rlinecurve
          -8 -7 0 -1 -8 hvcurveto
          42 128 rlineto
          -126 hlineto
          -42 -132 rlineto
          -409 -41 -256 -270 -430 vvcurveto
          -255 88 -194 156 -124 vhcurveto
          -108 -321 rlineto
          126 hlineto
          85 255 53 -32 61 -26 65 -18 rlinecurve
          -61 -179 rlineto
          -153 545 rmoveto
          -67 89 -36 117 144 vvcurveto
          286 153 189 241 59 vhcurveto
          -22 -1066 rmoveto
          -67 19 -58 29 -51 39 330 1001 rcurveline
          1 16 17 1 16 hhcurveto
          56 53 -3 -5 44 hvcurveto
          endchar
        </CharString>
        <CharString name="comma">
          593 -335 rmoveto
          184 725 rlineto
          -257 hlineto
          -131 -725 rlineto
          endchar
        </CharString>
        <CharString name="commaaccent">
          654 -494 37 callgsubr
        </CharString>
        <CharString name="commabelowcmb">
          145 callsubr
          endchar
        </CharString>
        <CharString name="copyright">
          882 810 rmoveto
          122 -17 -91 79 -129 hhcurveto
          -165 -99 -106 -183 -183 99 -106 165 128 93 78 118 16 hvcurveto
          -127 hlineto
          -51 -12 -41 -31 -58 hhcurveto
          -86 -49 66 109 109 49 66 86 58 38 -33 -54 15 hvcurveto
          -122 -638 rmoveto
          303 239 239 310 310 -239 239 -303 -303 -239 -239 -310 -310 239 -239 303 hvcurveto
          98 vmoveto
          -245 -191 199 252 252 191 199 245 245 191 -199 -252 -252 -191 -199 -245 hvcurveto
          endchar
        </CharString>
        <CharString name="cruzeiro">
          1150 192 rmoveto
          -51 -14 -75 -11 -80 -1 rrcurveto
          -2 -19 -22 -1 -23 hhcurveto
          303 vlineto
          158 86 105 137 35 44 -7 -7 17 vhcurveto
          175 vlineto
          5 -22 -26 5 -29 hhcurveto
          -121 -87 -80 -114 -27 hvcurveto
          -13 177 -170 -702 hlineto
          -260 51 -156 188 302 vvcurveto
          351 229 207 347 107 106 -13 -14 60 vhcurveto
          184 vlineto
          18 -69 -102 13 -106 hhcurveto
          -475 -305 -277 -470 -480 298 -267 489 102 102 11 18 79 hvcurveto
          endchar
        </CharString>
        <CharString name="currency">
          1142 1039 rmoveto
          -123 129 -160 -168 rlineto
          43 -62 -75 23 -80 hhcurveto
          -78 -75 -23 -43 -63 hvcurveto
          -161 168 -124 -129 162 -165 rlineto
          -43 -63 -22 -75 -82 vvcurveto
          -83 22 -75 43 -64 vhcurveto
          -162 -165 124 -129 160 169 rlineto
          -43 64 75 -22 78 hhcurveto
          80 74 22 43 63 hvcurveto
          160 -169 123 129 -159 164 rlineto
          43 65 22 74 84 vvcurveto
          82 -22 75 -42 64 vhcurveto
          -341 -471 rmoveto
          -142 -104 107 143 143 104 107 142 142 103 -107 -143 -143 -103 -107 -142 hvcurveto
          endchar
        </CharString>
        <CharString name="d">
          341 628 -93 callsubr
        </CharString>
        <CharString name="dagger">
          714 762 rmoveto
          399 -1 rlineto
          170 vlineto
          -399 -1 3 424 rlineto
          -168 hlineto
          3 -424 -399 1 rlineto
          -170 vlineto
          399 1 -3 -933 rlineto
          168 hlineto
          endchar
        </CharString>
        <CharString name="daggerdbl">
          1113 252 rmoveto
          171 vlineto
          -398 -2 rlineto
          341 vlineto
          398 -1 rlineto
          170 vlineto
          -397 -1 1 424 rlineto
          -168 hlineto
          1 -424 -397 1 rlineto
          -170 vlineto
          398 1 rlineto
          -341 vlineto
          -398 2 rlineto
          -171 vlineto
          397 1 -1 -424 rlineto
          168 hlineto
          -1 424 rlineto
          endchar
        </CharString>
        <CharString name="darkshade">
          1054 1354 rmoveto
          -106 -105 106 vlineto
          -105 197 callgsubr
          -105 197 callgsubr
          -106 hmoveto
          -106 -104 106 vlineto
          -106 hmoveto
          -106 -105 106 vlineto
          843 -317 rmoveto
          -105 106 105 hlineto
          -632 204 callgsubr
          843 204 callgsubr
          -633 204 callgsubr
          211 -106 rmoveto
          -105 106 105 hlineto
          -105 -212 rmoveto
          -104 -106 104 vlineto
          527 hmoveto
          -104 -105 104 vlineto
          -105 hmoveto
          -104 -106 104 vlineto
          -317 hmoveto
          -104 -104 104 vlineto
          -106 hmoveto
          -104 -105 104 vlineto
          843 -210 rmoveto
          -106 -105 106 vlineto
          -317 197 callgsubr
          739 197 callgsubr
          -316 hmoveto
          -106 -105 106 vlineto
          -316 204 callgsubr
          737 -211 rmoveto
          -106 -105 106 vlineto
          -632 -106 rmoveto
          106 104 -106 vlineto
          -210 106 rmoveto
          -106 -105 106 vlineto
          738 197 callgsubr
          -105 197 callgsubr
          317 -316 rmoveto
          105 105 -105 vlineto
          -738 hmoveto
          105 106 -105 vlineto
          316 hmoveto
          105 105 -105 vlineto
          316 hmoveto
          105 106 -105 vlineto
          -739 hmoveto
          105 106 -105 vlineto
          317 -106 rmoveto
          -105 -106 203 callgsubr
          -105 105 vlineto
          315 hmoveto
          -105 -104 105 vlineto
          737 hmoveto
          -105 -105 105 vlineto
          -316 hmoveto
          -105 -106 105 vlineto
          106 -316 rmoveto
          105 105 -105 vlineto
          316 hmoveto
          105 106 -105 vlineto
          -949 hmoveto
          105 106 -105 vlineto
          104 hmoveto
          105 106 -105 vlineto
          317 hmoveto
          105 105 -105 vlineto
          -738 -211 rmoveto
          106 106 104 -106 106 106 106 -106 105 106 106 -106 105 106 105 -106 106 106 106 316 -106 105 106 316 -106 106 106 317 -106 104 106 317 -106 106 106 210 -106 -106 -106 106 -105 -106 -105 106 -106 -106 -105 hlineto
          106 -106 -106 -106 106 -104 -106 -106 106 -105 -106 -106 -315 106 -106 -106 -316 106 -106 -106 -316 106 -105 -106 -317 106 -105 -106 -211 106 106 105 vlineto
          endchar
        </CharString>
        <CharString name="dbldnhorzbxd">
          -168 646 rmoveto
          86 callgsubr
          1602 -518 74 callsubr
          -337 -1141 rmoveto
          72 callsubr
        </CharString>
        <CharString name="dbldnleftbxd">
          886 -840 rmoveto
          1659 -1054 -173 885 -1486 vlineto
          -168 hmoveto
          72 callsubr
        </CharString>
        <CharString name="dbldnrightbxd">
          1434 646 rmoveto
          173 -1054 -1659 169 1486 vlineto
          885 -345 74 callsubr
          endchar
        </CharString>
        <CharString name="dblgrave">
          829 -4 callgsubr
          endchar
        </CharString>
        <CharString name="dblgravecmb">
          829 -4 callgsubr
          endchar
        </CharString>
        <CharString name="dblgravecmb.short">
          807 125 callsubr
          -212 hlineto
          302 -307 rlineto
          192 hlineto
          -673 27 callsubr
          endchar
        </CharString>
        <CharString name="dblhorzbxd">
          -168 646 rmoveto
          86 callgsubr
          -518 vmoveto
          86 callgsubr
          endchar
        </CharString>
        <CharString name="dbluphorzbxd">
          717 646 rmoveto
          717 173 -548 1141 61 callsubr
          -345 vmoveto
          86 callgsubr
          endchar
        </CharString>
        <CharString name="dblupleftbxd">
          549 646 rmoveto
          1314 -169 -1141 -548 -173 vlineto
          1054 -345 rmoveto
          1659 -169 -1486 -885 -173 vlineto
          endchar
        </CharString>
        <CharString name="dbluprightbxd">
          717 646 191 callgsubr
          -337 -1659 rmoveto
          1054 173 -885 1486 -169 hlineto
          endchar
        </CharString>
        <CharString name="dblvertbxd">
          190 callsubr
          -337 -2800 111 callgsubr
          endchar
        </CharString>
        <CharString name="dblverthorzbxd">
          717 646 rmoveto
          717 173 -548 1141 61 callsubr
          1602 -345 74 callsubr
          -337 -1141 rmoveto
          72 callsubr
        </CharString>
        <CharString name="dblvertleftbxd">
          717 -840 rmoveto
          169 2800 61 callsubr
          717 -1486 rmoveto
          72 callsubr
        </CharString>
        <CharString name="dblvertrightbxd">
          380 109 callsubr
          337 -1314 191 callgsubr
          717 -1659 74 callsubr
          endchar
        </CharString>
        <CharString name="dcaron">
          266 625 rmoveto
          203 84 106 157 157 84 -106 -203 vhcurveto
          -156 vlineto
          -203 -84 -106 -157 -157 -84 106 203 vhcurveto
          497 -297 rmoveto
          -172 176 1515 -181 -598 -19 vlineto
          128 -46 -96 63 -145 hhcurveto
          -240 -131 -163 -301 hvcurveto
          -198 vlineto
          -301 131 -163 240 143 94 61 129 55 vhcurveto
          323 1343 rmoveto
          -468 133 vlineto
          36 468 rlineto
          endchar
        </CharString>
        <CharString name="dcircumflexbelow">
          520 -164 -48 callgsubr
          -405 792 -93 callsubr
        </CharString>
        <CharString name="dcommaaccent">
          145 callsubr
          -129 1144 -93 callsubr
        </CharString>
        <CharString name="dcroat">
          886 465 rmoveto
          -187 -106 -118 -167 -168 -107 118 187 148 callsubr
          107 119 168 167 106 -118 -188 vhcurveto
          352 760 rmoveto
          -151 127 -205 -127 -209 -121 209 -350 -20 hlineto
          122 -44 -114 69 -157 hhcurveto
          -252 -160 177 callgsubr
          -198 vlineto
          -285 160 -179 252 157 112 67 123 51 vhcurveto
          19 -172 201 1267 151 hlineto
          endchar
        </CharString>
        <CharString name="ddotaccent">
          509 1295 rmoveto
          123 callgsubr
          -74 -62 -62 -76 -75 62 -62 74 hvcurveto
          -168 -667 -93 callsubr
        </CharString>
        <CharString name="ddotbelow">
          62 callgsubr
          -292 1086 -93 callsubr
        </CharString>
        <CharString name="decyrillic">
          11 callgsubr
        </CharString>
        <CharString name="degree">
          634 828 rmoveto
          188 137 callgsubr
          188 188 -140 140 -188 -188 -140 -140 -188 -188 140 -140 188 hvcurveto
          136 vmoveto
          -110 -79 81 111 111 79 81 110 109 80 -81 -111 -111 -80 -81 -109 hvcurveto
          endchar
        </CharString>
        <CharString name="deltagreek">
          1142 520 rmoveto
          270 -139 139 -307 150 vhcurveto
          -149 70 -40 42 62 vvcurveto
          76 76 41 117 117 117 -33 -53 104 vhcurveto
          175 vlineto
          48 -87 -124 28 -145 hhcurveto
          -232 -142 -112 -156 -112 60 -79 153 -75 hvcurveto
          -18 vlineto
          -248 -32 -148 -188 -248 vvcurveto
          -35 vlineto
          -318 188 -183 322 312 195 194 316 vhcurveto
          -504 371 rmoveto
          182 123 -134 -205 hvcurveto
          -30 vlineto
          -217 -110 -125 -193 -199 -115 116 217 vhcurveto
          40 vlineto
          215 124 123 188 vhcurveto
          endchar
        </CharString>
        <CharString name="dieresis">
          423 1315 -104 callsubr
          endchar
        </CharString>
        <CharString name="dieresisacutecmb">
          521 1658 rmoveto
          184 hlineto
          242 316 rlineto
          -214 hlineto
          -310 -673 -104 callsubr
          endchar
        </CharString>
        <CharString name="dieresisacutecmb.short">
          506 1876 rmoveto
          188 hlineto
          225 229 rlineto
          -218 hlineto
          -271 -540 5 callgsubr
        </CharString>
        <CharString name="dieresisbelowcmb">
          423 -449 -104 callsubr
          endchar
        </CharString>
        <CharString name="dieresiscaroncmb">
          734 1658 rmoveto
          273 324 rlineto
          -193 hlineto
          -174 -214 rlineto
          -14 hlineto
          -174 214 rlineto
          -193 hlineto
          273 -324 rlineto
          -109 -357 -104 callsubr
          endchar
        </CharString>
        <CharString name="dieresiscaroncmb.short">
          732 1866 rmoveto
          280 261 rlineto
          -208 hlineto
          -163 -158 rlineto
          -16 180 callsubr
          -104 -301 5 callgsubr
        </CharString>
        <CharString name="dieresiscmb">
          423 75 callsubr
          67 59 60 -98 callsubr
          -60 68 hvcurveto
          420 hmoveto
          -50 callsubr
          endchar
        </CharString>
        <CharString name="dieresiscmb.short">
          423 1643 -104 callsubr
          endchar
        </CharString>
        <CharString name="dieresisgravecmb">
          423 1301 -104 callsubr
          -310 673 rmoveto
          -214 hlineto
          242 -316 rlineto
          184 hlineto
          endchar
        </CharString>
        <CharString name="dieresisgravecmb.short">
          430 28 callgsubr
          endchar
        </CharString>
        <CharString name="dieresismacroncmb">
          -17 callgsubr
          endchar
        </CharString>
        <CharString name="dieresismacroncmb.short">
          838 30 callsubr
          endchar
        </CharString>
        <CharString name="dieresistonosgreek">
          511 1286 31 callsubr
        </CharString>
        <CharString name="divide">
          1139 553 rmoveto
          175 -1012 -175 vlineto
          506 319 rmoveto
          80 56 57 208 callgsubr
          -57 78 hvcurveto
          -737 vmoveto
          80 56 56 208 callgsubr
          -56 78 hvcurveto
          endchar
        </CharString>
        <CharString name="djecyrillic">
          367 899 rmoveto
          369 254 121 -254 126 -194 -126 -152 -121 152 -1268 201 44 callsubr
          -707 vlineto
          -112 -47 -44 -117 -4 -25 0 1 -2 vhcurveto
          -163 vlineto
          -1 5 37 -1 10 hhcurveto
          231 112 103 213 hvcurveto
          760 vlineto
          261 -129 143 -237 -165 -124 -76 -134 -56 vhcurveto
          endchar
        </CharString>
        <CharString name="dlinebelow">
          972 -401 -25 callsubr
          47 1029 -93 callsubr
        </CharString>
        <CharString name="dndblhorzsngbxd">
          114 callgsubr
          -1602 99 callsubr
        </CharString>
        <CharString name="dndblleftsngbxd">
          172 callsubr
          1486 -1054 99 callsubr
        </CharString>
        <CharString name="dndblrightsngbxd">
          114 callgsubr
          -1054 -1486 169 1314 168 hlineto
          endchar
        </CharString>
        <CharString name="dneighthblock">
          117 callgsubr
          256 129 callgsubr
        </CharString>
        <CharString name="dnfiveeighthsblock">
          117 callgsubr
          1280 129 callgsubr
        </CharString>
        <CharString name="dnhalfblock">
          117 callgsubr
          1024 129 callgsubr
        </CharString>
        <CharString name="dnheavyhorzlightbxd">
          10 callsubr
          -1602 223 callsubr
          -1314 302 69 callsubr
        </CharString>
        <CharString name="dnheavyleftlightbxd">
          157 callgsubr
          1486 -952 161 callgsubr
        </CharString>
        <CharString name="dnheavyleftuplightbxd">
          150 callsubr
          -717 161 callgsubr
        </CharString>
        <CharString name="dnheavyrightlightbxd">
          10 callsubr
          -952 -1486 302 69 callsubr
        </CharString>
        <CharString name="dnheavyrightuplightbxd">
          -8 callsubr
          -1314 -67 -1486 302 69 callsubr
        </CharString>
        <CharString name="dnheavyuphorzlightbxd">
          -8 callsubr
          -1314 -717 223 callsubr
          -1314 302 69 callsubr
        </CharString>
        <CharString name="dnleftquadrant">
          -464 vmoveto
          116 callsubr
        </CharString>
        <CharString name="dnlighthorzheavybxd">
          -31 callsubr
          -1602 73 callgsubr
        </CharString>
        <CharString name="dnlightleftheavybxd">
          124 callsubr
          1555 -885 161 callsubr
        </CharString>
        <CharString name="dnlightleftupheavybxd">
          784 405 rmoveto
          1555 127 callgsubr
        </CharString>
        <CharString name="dnlightrightheavybxd">
          -31 callsubr
          -885 -1555 168 60 callsubr
        </CharString>
        <CharString name="dnlightrightupheavybxd">
          -31 callsubr
          -650 1245 -302 -1555 67 -1245 168 60 callsubr
        </CharString>
        <CharString name="dnlightuphorzheavybxd">
          -31 callsubr
          -650 1245 127 callgsubr
        </CharString>
        <CharString name="dnquarterblock">
          117 callgsubr
          512 129 callgsubr
        </CharString>
        <CharString name="dnrightquadrant">
          633 -464 rmoveto
          116 callsubr
        </CharString>
        <CharString name="dnseveneighthsblock">
          117 callgsubr
          1792 129 callgsubr
        </CharString>
        <CharString name="dnsnghorzdblbxd">
          -168 646 rmoveto
          86 callgsubr
          1602 -518 rmoveto
          198 callgsubr
          -173 717 -1141 162 callsubr
        </CharString>
        <CharString name="dnsngleftdblbxd">
          124 callsubr
          1659 -885 -173 717 -172 -717 -173 717 204 callsubr
        </CharString>
        <CharString name="dnsngrightdblbxd">
          1434 301 rmoveto
          173 -717 172 717 173 -885 -1659 162 callsubr
        </CharString>
        <CharString name="dnthreeeighthsblock">
          117 callgsubr
          768 129 callgsubr
        </CharString>
        <CharString name="dnthreequartersblock">
          117 callgsubr
          1536 129 callgsubr
        </CharString>
        <CharString name="dollar">
          709 626 rmoveto
          185 -48 76 -71 -123 vvcurveto
          -133 -104 -96 -157 -19 vhcurveto
          -123 708 rmoveto
          -172 48 -69 66 116 vvcurveto
          128 92 87 149 18 vhcurveto
          123 -494 rmoveto
          494 vlineto
          136 -20 91 -86 16 -127 rrcurveto
          180 hlineto
          -12 222 -166 154 -245 22 rrcurveto
          112 -123 -111 vlineto
          -261 -21 -167 -156 -231 vvcurveto
          -210 124 -127 271 -65 vhcurveto
          33 -8 rlineto
          -519 vlineto
          -158 19 -108 93 -15 136 rrcurveto
          -182 hlineto
          14 -239 177 -156 272 -19 rrcurveto
          -111 123 112 vlineto
          275 21 173 162 243 vvcurveto
          217 -119 119 -288 70 vhcurveto
          endchar
        </CharString>
        <CharString name="dotaccent">
          633 1295 rmoveto
          -41 callsubr
        </CharString>
        <CharString name="dotaccentcmb">
          633 1295 rmoveto
          -41 callsubr
        </CharString>
        <CharString name="dotaccentcmb.short">
          633 1628 rmoveto
          43 callsubr
        </CharString>
        <CharString name="dotbelowcmb">
          62 callgsubr
          endchar
        </CharString>
        <CharString name="dotlessi">
          1111 hmoveto
          -77 callsubr
          endchar
        </CharString>
        <CharString name="dotlessj">
          -28 callgsubr
          endchar
        </CharString>
        <CharString name="dotmacroncmb">
          972 1728 -47 callgsubr
          339 -445 rmoveto
          43 callsubr
        </CharString>
        <CharString name="dotmacroncmb.short">
          76 callgsubr
          endchar
        </CharString>
        <CharString name="dzecyrillic">
          223 789 rmoveto
          50 callsubr
          vhcurveto
          163 -37 rlineto
          -103 callgsubr
          hvcurveto
          endchar
        </CharString>
        <CharString name="dzhecyrillic">
          1094 1090 rmoveto
          -201 -925 -520 925 -201 -1090 368 -285 186 285 368 hlineto
          endchar
        </CharString>
        <CharString name="e">
          -106 callsubr
          endchar
        </CharString>
        <CharString name="eacute">
          735 -34 callgsubr
          380 -1008 -99 callsubr
        </CharString>
        <CharString name="ebreve">
          -106 callsubr
          -461 1121 63 callgsubr
        </CharString>
        <CharString name="ecaron">
          754 -7 callgsubr
          382 -1008 -99 callsubr
        </CharString>
        <CharString name="ecedilla">
          374 636 -32 callgsubr
        </CharString>
        <CharString name="ecedillabreve">
          840 1595 rmoveto
          -112 -71 -81 -128 -126 -72 81 112 vhcurveto
          -168 hlineto
          148 callgsubr
          227 139 140 196 vhcurveto
          -633 -959 -32 callgsubr
        </CharString>
        <CharString name="ecircumflex">
          -17 callsubr
          213 hlineto
          164 222 rlineto
          16 hlineto
          164 -222 rlineto
          213 hlineto
          -272 346 rlineto
          endchar
        </CharString>
        <CharString name="ecircumflexacute">
          -106 callsubr
          -255 1367 rmoveto
          179 175 callsubr
          -209 hlineto
          -521 -346 -3 callgsubr
        </CharString>
        <CharString name="ecircumflexbelow">
          -106 callsubr
          -574 -452 26 callsubr
        </CharString>
        <CharString name="ecircumflexdotbelow">
          -26 callgsubr
          -113 -2083 -72 callsubr
        </CharString>
        <CharString name="ecircumflexgrave">
          -106 callsubr
          14 1367 rmoveto
          -202 316 rlineto
          -209 175 callgsubr
          -409 -30 -3 callgsubr
        </CharString>
        <CharString name="ecircumflexhookabove">
          -26 callgsubr
          21 227 rmoveto
          15 30 42 9 38 hhcurveto
          63 41 -33 -48 -43 -41 -42 -60 -21 hvcurveto
          73 -95 rlineto
          110 139 callsubr
        </CharString>
        <CharString name="ecircumflextilde">
          -106 callsubr
          -601 1575 rmoveto
          87 42 -151 160 hhcurveto
          143 86 110 182 hvcurveto
          -150 hlineto
          -105 -1 -25 -43 -61 -87 -42 150 -160 hhcurveto
          -144 84 callgsubr
          61 hhcurveto
          27 -238 -3 callgsubr
        </CharString>
        <CharString name="ecyrillic">
          -5 callsubr
          endchar
        </CharString>
        <CharString name="edblgrave">
          728 1639 49 callgsubr
          185 hlineto
          364 -1008 -99 callsubr
        </CharString>
        <CharString name="edieresis">
          -106 callsubr
          -672 1027 0 callsubr
          146 callsubr
        </CharString>
        <CharString name="edotaccent">
          -106 callsubr
          -461 1013 -72 callsubr
        </CharString>
        <CharString name="edotbelow">
          -106 callsubr
          -461 -746 -72 callsubr
        </CharString>
        <CharString name="efcyrillic">
          540 -361 rmoveto
          188 345 hlineto
          326 19 176 195 346 vvcurveto
          344 -178 198 -324 18 vhcurveto
          352 -188 -352 vlineto
          -325 -18 -177 -198 -344 vvcurveto
          -346 176 -195 326 -19 vhcurveto
          -315 560 rmoveto
          253 110 143 208 6 vhcurveto
          -803 vlineto
          -208 7 -110 141 253 vvcurveto
          500 402 rmoveto
          207 -6 111 -143 -253 vvcurveto
          -253 -111 -141 -207 -7 vhcurveto
          endchar
        </CharString>
        <CharString name="egrave">
          -106 callsubr
          -329 1008 5 callsubr
        </CharString>
        <CharString name="ehookabove">
          -106 callsubr
          -634 1213 61 callgsubr
        </CharString>
        <CharString name="eight">
          637 836 rmoveto
          -159 -105 94 141 140 105 94 159 158 106 -94 -140 -141 -106 -94 -158 hvcurveto
          -697 vmoveto
          -186 -128 108 157 157 128 108 186 186 128 -108 -157 -157 -128 -108 -186 hvcurveto
          -171 vmoveto
          311 215 171 248 180 -121 149 -179 38 hvcurveto
          16 vlineto
          150 41 92 122 156 vvcurveto
          226 -194 160 -274 -274 -194 -160 -226 -155 93 -124 148 -40 vhcurveto
          -16 vlineto
          -182 -43 -117 -146 -178 vvcurveto
          -248 214 -171 312 vhcurveto
          endchar
        </CharString>
        <CharString name="einvertedbreve">
          1007 1259 rmoveto
          197 -139 139 -227 -226 -140 -139 -197 vhcurveto
          168 hlineto
          112 72 81 126 128 71 -81 -112 vhcurveto
          70 -971 -99 callsubr
        </CharString>
        <CharString name="elcyrillic">
          880 922 rmoveto
          -922 198 1090 -753 vlineto
          -56 callgsubr
          endchar
        </CharString>
        <CharString name="ellipsis">
          226 -10 rmoveto
          219 callgsubr
          -81 -44 -62 -114 -114 44 -61 81 hvcurveto
          407 hmoveto
          219 callgsubr
          205 callsubr
          407 hmoveto
          81 44 61 114 114 -44 62 -81 205 callsubr
          endchar
        </CharString>
        <CharString name="emacron">
          -106 callsubr
          -122 1078 -25 callsubr
          endchar
        </CharString>
        <CharString name="emacronacute">
          980 1365 47 callsubr
          409 303 rmoveto
          240 303 rlineto
          -209 hlineto
          -210 -303 rlineto
          377 -1380 -99 callsubr
        </CharString>
        <CharString name="emacrongrave">
          -106 callsubr
          -352 1380 rmoveto
          -210 303 rlineto
          -209 hlineto
          240 -303 rlineto
          409 -303 47 callsubr
          endchar
        </CharString>
        <CharString name="emcyrillic">
          268 802 rmoveto
          15 hlineto
          287 -762 rlineto
          127 hlineto
          285 754 rlineto
          14 hlineto
          -6 -794 rlineto
          165 1090 -213 hlineto
          -301 -810 rlineto
          -13 hlineto
          -301 810 rlineto
          -216 -1090 164 hlineto
          endchar
        </CharString>
        <CharString name="emdash">
          105 callsubr
        </CharString>
        <CharString name="encyrillic">
          104 callsubr
        </CharString>
        <CharString name="endash">
          105 callsubr
        </CharString>
        <CharString name="eogonek">
          846 -438 rmoveto
          42 40 6 11 30 hvcurveto
          130 vlineto
          -4 -13 -26 -3 -29 hhcurveto
          -74 -48 42 64 67 44 61 129 106 hvcurveto
          92 78 56 86 13 82 rrcurveto
          133 callsubr
          731 118 vlineto
          310 -173 188 -285 -283 -187 -189 -287 vhcurveto
          -166 vlineto
          -308 171 -182 290 35 39 6 8 22 vhcurveto
          -15 vlineto
          -86 -52 -49 -77 -82 vvcurveto
          -120 102 -85 145 vhcurveto
          -201 1385 rmoveto
          165 98 -117 -194 hvcurveto
          -534 hlineto
          195 102 116 169 vhcurveto
          endchar
        </CharString>
        <CharString name="epsilongreek">
          219 callsubr
          212 103 callsubr
          155 -151 hlineto
          -151 -82 53 98 103 99 57 154 159 104 -49 -137 28 hvcurveto
          198 hlineto
          245 178 callgsubr
          -180 -115 56 -79 122 -41 hvcurveto
          -15 vlineto
          -132 -39 -68 -87 -126 vvcurveto
          -198 161 -116 293 vhcurveto
          endchar
        </CharString>
        <CharString name="epsilontonosgreek">
          219 callsubr
          211 103 callsubr
          156 -151 hlineto
          -151 -82 52 99 102 99 57 154 159 104 -49 -136 28 hvcurveto
          198 hlineto
          244 178 callgsubr
          -179 -116 56 -79 122 -40 hvcurveto
          -16 vlineto
          -132 -39 -68 -87 -125 vvcurveto
          -199 161 -115 293 vhcurveto
          -56 1307 rmoveto
          175 87 callsubr
          endchar
        </CharString>
        <CharString name="equal">
          1162 307 rmoveto
          195 -1058 -195 vlineto
          1058 471 rmoveto
          195 -1058 -195 vlineto
          endchar
        </CharString>
        <CharString name="ercyrillic">
          714 1107 rmoveto
          -157 -112 -66 -124 -51 hvcurveto
          -20 165 callgsubr
          45 114 -69 157 28 callsubr
          vhcurveto
          -66 -178 rmoveto
          168 106 -118 -187 hvcurveto
          123 callsubr
          -106 -119 -168 -167 -107 118 188 148 callsubr
          107 223 callgsubr
          vhcurveto
          endchar
        </CharString>
        <CharString name="ereversedcyrillic">
          336 744 -89 callsubr
        </CharString>
        <CharString name="escyrillic">
          1099 739 1 callgsubr
        </CharString>
        <CharString name="etagreek">
          430 hmoveto
          1 callsubr
        </CharString>
        <CharString name="etatonosgreek">
          453 1286 rmoveto
          175 87 callsubr
          -103 -1640 rmoveto
          1 callsubr
        </CharString>
        <CharString name="eth">
          861 478 rmoveto
          -212 -96 -121 -170 -170 -96 121 212 vhcurveto
          62 vlineto
          210 95 118 171 171 95 -118 -210 vhcurveto
          211 957 rmoveto
          -314 -114 -48 53 -54 49 -58 43 rlinecurve
          -271 hlineto
          95 -65 84 -71 71 -75 -210 -77 rcurveline
          -135 vlineto
          298 109 77 -101 55 -106 30 -108 rlinecurve
          -12 hlineto
          85 -62 -87 41 -122 hhcurveto
          -260 -164 -189 -304 hvcurveto
          -50 vlineto
          -319 173 -181 301 302 173 184 323 vhcurveto
          109 vlineto
          242 -82 241 -144 198 vhcurveto
          229 84 rlineto
          endchar
        </CharString>
        <CharString name="etilde">
          -106 callsubr
          -600 1131 -12 callsubr
        </CharString>
        <CharString name="etildebelow">
          -106 callsubr
          -590 -602 214 callgsubr
          154 hhcurveto
          144 91 116 184 196 callgsubr
          118 callsubr
          153 -154 -41 callgsubr
        </CharString>
        <CharString name="exclam">
          517 97 callsubr
          18 -994 rlineto
          196 hlineto
          19 994 rlineto
          -117 -1465 rmoveto
          84 66 67 84 83 -66 67 -84 210 callsubr
        </CharString>
        <CharString name="exclamdown">
          633 1115 rmoveto
          -84 -66 -67 -84 -83 66 -67 84 84 66 67 83 84 -66 67 -84 hvcurveto
          117 -1465 rmoveto
          -19 994 rlineto
          -196 hlineto
          -18 -994 rlineto
          endchar
        </CharString>
        <CharString name="f">
          33 callsubr
          endchar
        </CharString>
        <CharString name="fdotaccent">
          33 callsubr
          -261 376 45 callgsubr
          endchar
        </CharString>
        <CharString name="fi">
          448 hmoveto
          919 494 -919 206 1084 -700 110 vlineto
          102 72 51 135 46 55 -4 -4 43 vhcurveto
          155 vlineto
          5 -31 -63 4 -50 hhcurveto
          -286 -127 -96 -222 hvcurveto
          -101 -232 -165 232 -919 vlineto
          798 1246 rmoveto
          90 65 63 86 86 -65 62 -90 -89 -66 -62 -86 -86 66 -63 89 hvcurveto
          endchar
        </CharString>
        <CharString name="figuredash">
          105 callsubr
        </CharString>
        <CharString name="five">
          622 -29 rmoveto
          302 203 200 297 283 -186 197 -267 -129 -105 -46 -87 -68 hvcurveto
          -17 hlineto
          38 447 rlineto
          651 181 -816 hlineto
          -71 -820 rlineto
          198 hlineto
          98 55 99 55 122 hhcurveto
          176 119 -127 -186 -186 -118 -124 -177 -159 -120 97 141 -17 hvcurveto
          -200 hlineto
          -250 12 197 -170 278 hhcurveto
          endchar
        </CharString>
        <CharString name="fl">
          425 919 rmoveto
          336 165 -339 67 hlineto
          149 59 52 177 vhcurveto
          290 -1352 200 1506 -505 hlineto
          -297 -122 -101 -247 hvcurveto
          -74 -224 -165 224 -919 201 vlineto
          endchar
        </CharString>
        <CharString name="florin">
          272 -24 rmoveto
          238 136 108 259 36 hvcurveto
          52 362 rlineto
          378 168 -353 hlineto
          27 196 rlineto
          140 21 76 70 145 hhcurveto
          66 61 -5 -15 51 hvcurveto
          186 vlineto
          15 -58 -63 5 -82 hhcurveto
          -242 -147 -132 -245 -36 hvcurveto
          -30 -215 rlineto
          -346 -168 321 hlineto
          -50 -348 rlineto
          -139 -20 -80 -55 -123 hhcurveto
          -64 -64 12 21 -61 hvcurveto
          -194 vlineto
          -18 72 57 -8 82 hhcurveto
          endchar
        </CharString>
        <CharString name="four">
          785 hmoveto
          193 296 212 175 -213 399 -187 -399 -438 14 hlineto
          466 958 rlineto
          -211 hlineto
          -475 -981 rlineto
          -166 653 vlineto
          endchar
        </CharString>
        <CharString name="fraction">
          1266 1443 14 callsubr
        </CharString>
        <CharString name="franc">
          870 358 rmoveto
          -360 274 554 179 -554 447 608 185 -815 -1085 -156 -144 156 -214 207 214 360 hlineto
          endchar
        </CharString>
        <CharString name="fullblock">
          117 callgsubr
          2048 129 callgsubr
        </CharString>
        <CharString name="g">
          -102 callsubr
          endchar
        </CharString>
        <CharString name="gacute">
          699 -49 callgsubr
          591 -28 callsubr
        </CharString>
        <CharString name="gammagreek">
          479 -349 rmoveto
          198 322 hlineto
          291 386 115 273 260 vvcurveto
          67 -8 77 -13 54 199 callgsubr
          14 -61 7 -55 -83 vvcurveto
          -223 -78 -196 -198 -279 vhcurveto
          -15 hlineto
          -275 897 216 callgsubr
          375 -1130 rlineto
          endchar
        </CharString>
        <CharString name="gbreve">
          -102 callsubr
          4 1818 rmoveto
          -127 -71 81 112 -1 hvcurveto
          -167 -33 callgsubr
          -112 97 callgsubr
          endchar
        </CharString>
        <CharString name="gcaron">
          719 -7 callgsubr
          592 -28 callsubr
        </CharString>
        <CharString name="gcircumflex">
          -102 callsubr
          -110 2034 -3 callgsubr
        </CharString>
        <CharString name="gcommaaccent">
          -102 callsubr
          39 2065 rmoveto
          -139 -359 rlineto
          205 hlineto
          117 359 rlineto
          endchar
        </CharString>
        <CharString name="gdotaccent">
          -102 callsubr
          4 1710 -76 callsubr
          endchar
        </CharString>
        <CharString name="gecyrillic">
          1130 1090 rmoveto
          -988 17 callgsubr
          hlineto
          endchar
        </CharString>
        <CharString name="germandbls">
          398 hmoveto
          1086 vlineto
          146 79 77 145 135 91 -88 -131 -150 -81 -88 -141 vhcurveto
          -42 -195 56 hlineto
          198 112 -90 -159 -159 -88 -82 -171 -48 -49 5 11 -36 hvcurveto
          -183 vlineto
          -9 45 52 -6 53 hhcurveto
          279 178 160 255 206 -123 134 -212 25 hvcurveto
          18 vlineto
          135 44 92 132 150 vvcurveto
          240 -162 143 -269 -271 -163 -147 -247 vhcurveto
          -1098 vlineto
          endchar
        </CharString>
        <CharString name="geupturncyrillic">
          953 1368 rmoveto
          -278 -811 17 callgsubr
          650 vlineto
          endchar
        </CharString>
        <CharString name="gjecyrillic">
          1037 1639 rmoveto
          -235 118 callgsubr
          205 hlineto
          363 -206 rmoveto
          -988 17 callgsubr
          hlineto
          endchar
        </CharString>
        <CharString name="glyph1">
          endchar
        </CharString>
        <CharString name="gmacron">
          -102 callsubr
          342 1775 -9 callgsubr
        </CharString>
        <CharString name="grave">
          870 1296 5 callsubr
        </CharString>
        <CharString name="gravecmb">
          870 1296 5 callsubr
        </CharString>
        <CharString name="gravecmb.short">
          616 65 callsubr
          endchar
        </CharString>
        <CharString name="greater">
          865 649 rmoveto
          -17 vlineto
          -672 -358 rlineto
          -224 vlineto
          881 504 rlineto
          173 vlineto
          -881 504 rlineto
          -223 vlineto
          endchar
        </CharString>
        <CharString name="greaterequal">
          1130 88 rmoveto
          177 -993 -177 vlineto
          509 vmoveto
          -194 vlineto
          993 304 rlineto
          174 vlineto
          -993 305 rlineto
          -194 vlineto
          718 -189 rlineto
          -17 vlineto
          endchar
        </CharString>
        <CharString name="greekquestionmark">
          55 callgsubr
        </CharString>
</ttFont>
